<svg width="163" height="46" viewBox="0 0 163 46" fill="none" xmlns="http://www.w3.org/2000/svg">
<path d="M153.142 29.9005C151.649 29.9005 150.316 29.5405 149.142 28.8205C147.996 28.1005 147.196 27.0338 146.742 25.6205L147.102 24.6205L146.702 27.3005C146.596 28.1271 146.316 28.7538 145.862 29.1805C145.436 29.6071 144.809 29.8205 143.982 29.8205C143.209 29.8205 142.622 29.5671 142.222 29.0605C141.849 28.5271 141.729 27.8071 141.862 26.9005L145.582 3.50047C145.716 2.6738 146.022 2.04714 146.502 1.62047C146.982 1.1938 147.636 0.980469 148.462 0.980469C149.236 0.980469 149.809 1.2338 150.182 1.74047C150.556 2.24714 150.676 2.96714 150.542 3.90047L148.982 13.6205H148.582C149.302 12.3405 150.262 11.3405 151.462 10.6205C152.662 9.90047 154.036 9.54047 155.582 9.54047C157.076 9.54047 158.369 9.88714 159.462 10.5805C160.582 11.2471 161.449 12.2205 162.062 13.5005C162.676 14.7538 162.982 16.2471 162.982 17.9805C162.982 20.1938 162.582 22.2071 161.782 24.0205C161.009 25.8071 159.889 27.2338 158.422 28.3005C156.956 29.3671 155.196 29.9005 153.142 29.9005ZM152.222 26.1005C153.449 26.1005 154.476 25.7538 155.302 25.0605C156.156 24.3671 156.809 23.4205 157.262 22.2205C157.716 21.0205 157.942 19.6871 157.942 18.2205C157.942 16.6471 157.556 15.4471 156.782 14.6205C156.036 13.7671 154.996 13.3405 153.662 13.3405C152.462 13.3405 151.436 13.6871 150.582 14.3805C149.729 15.0738 149.076 16.0205 148.622 17.2205C148.169 18.3938 147.942 19.7271 147.942 21.2205C147.942 22.7938 148.316 24.0071 149.062 24.8605C149.836 25.6871 150.889 26.1005 152.222 26.1005Z" fill="white"/>
<path d="M129.942 29.901C127.968 29.901 126.248 29.541 124.782 28.821C123.342 28.0744 122.222 27.0344 121.422 25.701C120.622 24.3677 120.222 22.8077 120.222 21.021C120.222 18.8344 120.675 16.8877 121.582 15.181C122.515 13.4477 123.795 12.0743 125.422 11.061C127.048 10.0477 128.915 9.54102 131.022 9.54102C132.648 9.54102 134.008 9.82102 135.102 10.381C136.195 10.941 137.062 11.701 137.702 12.661C138.342 13.5943 138.768 14.661 138.982 15.861C139.195 17.061 139.235 18.2877 139.102 19.541C139.048 20.101 138.902 20.461 138.662 20.621C138.422 20.781 138.088 20.861 137.662 20.861H124.222L124.622 17.981H135.822L135.142 18.581C135.302 17.5143 135.262 16.5677 135.022 15.741C134.782 14.8877 134.328 14.2077 133.662 13.701C133.022 13.1943 132.128 12.941 130.982 12.941C129.808 12.941 128.822 13.2077 128.022 13.741C127.222 14.2744 126.595 14.9677 126.142 15.821C125.688 16.6477 125.382 17.541 125.222 18.501L125.022 19.741C124.702 21.6877 125.022 23.2344 125.982 24.381C126.942 25.5277 128.408 26.101 130.382 26.101C131.182 26.101 132.008 26.021 132.862 25.861C133.715 25.6744 134.488 25.381 135.182 24.981C135.688 24.6877 136.128 24.5677 136.502 24.621C136.902 24.6477 137.208 24.7944 137.422 25.061C137.662 25.301 137.808 25.6077 137.862 25.981C137.915 26.3277 137.848 26.701 137.662 27.101C137.502 27.4743 137.208 27.8077 136.782 28.101C135.848 28.7143 134.742 29.1677 133.462 29.461C132.182 29.7543 131.008 29.901 129.942 29.901Z" fill="white"/>
<path d="M93.6309 29.8201C92.9642 29.8201 92.4042 29.6334 91.9509 29.2601C91.4975 28.8868 91.1775 28.3001 90.9909 27.5001L87.5909 13.0601C87.4309 12.3668 87.4175 11.7668 87.5509 11.2601C87.7109 10.7535 87.9909 10.3535 88.3909 10.0601C88.7909 9.76678 89.2842 9.62012 89.8709 9.62012C90.5109 9.62012 90.9909 9.79345 91.3109 10.1401C91.6575 10.4601 91.9109 11.0201 92.0709 11.8201L94.7509 24.9401H93.7509L101.071 11.1001C101.364 10.5668 101.684 10.1935 102.031 9.98012C102.404 9.74012 102.871 9.62012 103.431 9.62012C103.964 9.62012 104.404 9.76678 104.751 10.0601C105.124 10.3535 105.378 10.8201 105.511 11.4601L108.271 24.9401H107.471L114.511 11.4601C114.884 10.7668 115.271 10.2868 115.671 10.0201C116.071 9.75345 116.604 9.62012 117.271 9.62012C117.911 9.62012 118.404 9.76678 118.751 10.0601C119.098 10.3268 119.284 10.6868 119.311 11.1401C119.338 11.5935 119.204 12.1001 118.911 12.6601L110.511 27.9401C110.164 28.5801 109.738 29.0601 109.231 29.3801C108.751 29.6735 108.178 29.8201 107.511 29.8201C106.844 29.8201 106.271 29.6334 105.791 29.2601C105.338 28.8601 105.018 28.2735 104.831 27.5001L101.831 13.8601H104.111L96.6709 27.8601C96.3242 28.5268 95.8975 29.0201 95.3909 29.3401C94.9109 29.6601 94.3242 29.8201 93.6309 29.8201Z" fill="white"/>
<path d="M80.1094 29.7003C79.2027 29.7003 78.4694 29.4203 77.9094 28.8603C77.376 28.3003 77.1094 27.5803 77.1094 26.7003C77.1094 25.8469 77.376 25.1536 77.9094 24.6203C78.4694 24.0603 79.2027 23.7803 80.1094 23.7803C81.0427 23.7803 81.7627 24.0603 82.2694 24.6203C82.8027 25.1536 83.0694 25.8469 83.0694 26.7003C83.0694 27.5803 82.8027 28.3003 82.2694 28.8603C81.7627 29.4203 81.0427 29.7003 80.1094 29.7003Z" fill="white"/>
<path d="M52.7664 29.8201C52.0731 29.8201 51.5264 29.6201 51.1264 29.2201C50.7531 28.7935 50.5664 28.2068 50.5664 27.4601V12.3401C50.5664 11.7535 50.6464 11.2601 50.8064 10.8601C50.9664 10.4601 51.2197 10.1534 51.5664 9.94012C51.9131 9.72678 52.3397 9.62012 52.8464 9.62012C53.3531 9.62012 53.7664 9.71345 54.0864 9.90012C54.4331 10.0601 54.7264 10.2735 54.9664 10.5401C55.2064 10.8068 55.4064 11.1001 55.5664 11.4201L61.4464 21.5001L67.3264 11.4201C67.5131 11.0734 67.7131 10.7668 67.9264 10.5001C68.1664 10.2335 68.4464 10.0201 68.7664 9.86012C69.1131 9.70012 69.5264 9.62012 70.0064 9.62012C70.7797 9.62012 71.3531 9.86012 71.7264 10.3401C72.0997 10.7935 72.2864 11.4601 72.2864 12.3401V27.4601C72.2864 28.2068 72.0997 28.7935 71.7264 29.2201C71.3531 29.6201 70.8064 29.8201 70.0864 29.8201C69.3931 29.8201 68.8464 29.6201 68.4464 29.2201C68.0731 28.7935 67.8864 28.2068 67.8864 27.4601V15.7001H68.8464L63.1264 25.4601C62.9931 25.7001 62.7931 25.9401 62.5264 26.1801C62.2864 26.3935 61.9264 26.5001 61.4464 26.5001C60.9397 26.5001 60.5664 26.3801 60.3264 26.1401C60.0864 25.9001 59.8997 25.6735 59.7664 25.4601L54.0064 15.7001H54.9664V27.4601C54.9664 28.2068 54.7797 28.7935 54.4064 29.2201C54.0331 29.6201 53.4864 29.8201 52.7664 29.8201Z" fill="white"/>
<path d="M30.7427 29.8202C29.9427 29.8202 29.316 29.6068 28.8627 29.1802C28.436 28.7268 28.2227 28.0868 28.2227 27.2602V12.2202C28.2227 11.3935 28.436 10.7668 28.8627 10.3402C29.316 9.88682 29.9427 9.66016 30.7427 9.66016C31.5427 9.66016 32.156 9.88682 32.5827 10.3402C33.0093 10.7668 33.2227 11.3935 33.2227 12.2202V17.5402H36.0627L41.0627 10.8202C41.436 10.3135 41.8627 9.99349 42.3427 9.86016C42.8227 9.70016 43.276 9.68682 43.7027 9.82016C44.156 9.95349 44.516 10.1935 44.7827 10.5402C45.076 10.8868 45.2227 11.3002 45.2227 11.7802C45.2493 12.2335 45.076 12.7135 44.7027 13.2202L39.9427 19.7402L38.8627 18.1402C39.5827 18.2202 40.2227 18.4202 40.7827 18.7402C41.3693 19.0602 41.9027 19.5135 42.3827 20.1002C42.8893 20.6602 43.3827 21.3668 43.8627 22.2202L46.2227 26.4202C46.5427 26.9802 46.6493 27.5002 46.5427 27.9802C46.4627 28.4335 46.236 28.8202 45.8627 29.1402C45.516 29.4602 45.1027 29.6602 44.6227 29.7402C44.1427 29.8202 43.6627 29.7535 43.1827 29.5402C42.7293 29.3535 42.3427 28.9802 42.0227 28.4202L39.3427 23.7402C38.996 23.1268 38.6493 22.6602 38.3027 22.3402C37.9827 21.9935 37.6093 21.7535 37.1827 21.6202C36.7827 21.4868 36.2893 21.4202 35.7027 21.4202H33.2227V27.2602C33.2227 28.0868 33.0093 28.7268 32.5827 29.1802C32.156 29.6068 31.5427 29.8202 30.7427 29.8202Z" fill="white"/>
<path d="M3.03984 29.8201C2.34651 29.8201 1.79984 29.6201 1.39984 29.2201C1.02651 28.7935 0.839844 28.2068 0.839844 27.4601V12.3401C0.839844 11.7535 0.919844 11.2601 1.07984 10.8601C1.23984 10.4601 1.49318 10.1534 1.83984 9.94012C2.18651 9.72678 2.61318 9.62012 3.11984 9.62012C3.62651 9.62012 4.03984 9.71345 4.35984 9.90012C4.70651 10.0601 4.99984 10.2735 5.23984 10.5401C5.47984 10.8068 5.67984 11.1001 5.83984 11.4201L11.7198 21.5001L17.5998 11.4201C17.7865 11.0734 17.9865 10.7668 18.1998 10.5001C18.4398 10.2335 18.7198 10.0201 19.0398 9.86012C19.3865 9.70012 19.7998 9.62012 20.2798 9.62012C21.0532 9.62012 21.6265 9.86012 21.9998 10.3401C22.3732 10.7935 22.5598 11.4601 22.5598 12.3401V27.4601C22.5598 28.2068 22.3732 28.7935 21.9998 29.2201C21.6265 29.6201 21.0798 29.8201 20.3598 29.8201C19.6665 29.8201 19.1198 29.6201 18.7198 29.2201C18.3465 28.7935 18.1598 28.2068 18.1598 27.4601V15.7001H19.1198L13.3998 25.4601C13.2665 25.7001 13.0665 25.9401 12.7998 26.1801C12.5598 26.3935 12.1998 26.5001 11.7198 26.5001C11.2132 26.5001 10.8398 26.3801 10.5998 26.1401C10.3598 25.9001 10.1732 25.6735 10.0398 25.4601L4.27984 15.7001H5.23984V27.4601C5.23984 28.2068 5.05318 28.7935 4.67984 29.2201C4.30651 29.6201 3.75984 29.8201 3.03984 29.8201Z" fill="white"/>
<path d="M155.558 42.6079C154.926 42.6079 154.382 42.4879 153.926 42.2479C153.478 41.9999 153.13 41.6519 152.882 41.2039C152.634 40.7479 152.51 40.2119 152.51 39.5959C152.51 38.9879 152.63 38.4559 152.87 37.9999C153.118 37.5439 153.454 37.1879 153.878 36.9319C154.31 36.6759 154.802 36.5479 155.354 36.5479C155.746 36.5479 156.098 36.6159 156.41 36.7519C156.73 36.8799 157.002 37.0679 157.226 37.3159C157.45 37.5639 157.618 37.8679 157.73 38.2279C157.85 38.5799 157.91 38.9799 157.91 39.4279C157.91 39.5559 157.87 39.6559 157.79 39.7279C157.718 39.7919 157.61 39.8239 157.466 39.8239H153.362V39.1279H157.19L156.986 39.2959C156.986 38.8799 156.922 38.5279 156.794 38.2399C156.674 37.9439 156.494 37.7199 156.254 37.5679C156.022 37.4159 155.73 37.3399 155.378 37.3399C154.994 37.3399 154.666 37.4319 154.394 37.6159C154.122 37.7919 153.914 38.0439 153.77 38.3719C153.626 38.6919 153.554 39.0639 153.554 39.4879V39.5599C153.554 40.2799 153.726 40.8239 154.07 41.1919C154.414 41.5599 154.91 41.7439 155.558 41.7439C155.814 41.7439 156.074 41.7119 156.338 41.6479C156.61 41.5839 156.87 41.4679 157.118 41.2999C157.238 41.2279 157.346 41.1959 157.442 41.2039C157.546 41.2039 157.63 41.2359 157.694 41.2999C157.758 41.3559 157.798 41.4279 157.814 41.5159C157.83 41.5959 157.818 41.6839 157.778 41.7799C157.738 41.8759 157.662 41.9599 157.55 42.0319C157.286 42.2159 156.97 42.3599 156.602 42.4639C156.242 42.5599 155.894 42.6079 155.558 42.6079Z" fill="white"/>
<path d="M149.266 42.5842C149.09 42.5842 148.954 42.5363 148.858 42.4402C148.762 42.3442 148.714 42.2042 148.714 42.0202V37.5322H147.01C146.69 37.5322 146.53 37.3842 146.53 37.0882C146.53 36.9522 146.574 36.8482 146.662 36.7762C146.75 36.6962 146.866 36.6562 147.01 36.6562H151.498C151.826 36.6562 151.99 36.8002 151.99 37.0882C151.99 37.2322 151.946 37.3442 151.858 37.4243C151.778 37.4962 151.658 37.5322 151.498 37.5322H149.806V42.0202C149.806 42.2042 149.758 42.3442 149.662 42.4402C149.574 42.5363 149.442 42.5842 149.266 42.5842Z" fill="white"/>
<path d="M143.652 42.6079C143.02 42.6079 142.476 42.4879 142.02 42.2479C141.572 41.9999 141.224 41.6519 140.976 41.2039C140.728 40.7479 140.604 40.2119 140.604 39.5959C140.604 38.9879 140.724 38.4559 140.964 37.9999C141.212 37.5439 141.548 37.1879 141.972 36.9319C142.404 36.6759 142.896 36.5479 143.448 36.5479C143.84 36.5479 144.192 36.6159 144.504 36.7519C144.824 36.8799 145.096 37.0679 145.32 37.3159C145.544 37.5639 145.712 37.8679 145.824 38.2279C145.944 38.5799 146.004 38.9799 146.004 39.4279C146.004 39.5559 145.964 39.6559 145.884 39.7279C145.812 39.7919 145.704 39.8239 145.56 39.8239H141.456V39.1279H145.284L145.08 39.2959C145.08 38.8799 145.016 38.5279 144.888 38.2399C144.768 37.9439 144.588 37.7199 144.348 37.5679C144.116 37.4159 143.824 37.3399 143.472 37.3399C143.088 37.3399 142.76 37.4319 142.488 37.6159C142.216 37.7919 142.008 38.0439 141.864 38.3719C141.72 38.6919 141.648 39.0639 141.648 39.4879V39.5599C141.648 40.2799 141.82 40.8239 142.164 41.1919C142.508 41.5599 143.004 41.7439 143.652 41.7439C143.908 41.7439 144.168 41.7119 144.432 41.6479C144.704 41.5839 144.964 41.4679 145.212 41.2999C145.332 41.2279 145.44 41.1959 145.536 41.2039C145.64 41.2039 145.724 41.2359 145.788 41.2999C145.852 41.3559 145.892 41.4279 145.908 41.5159C145.924 41.5959 145.912 41.6839 145.872 41.7799C145.832 41.8759 145.756 41.9599 145.644 42.0319C145.38 42.2159 145.064 42.3599 144.696 42.4639C144.336 42.5599 143.988 42.6079 143.652 42.6079Z" fill="white"/>
<path d="M134.402 42.5843C134.226 42.5843 134.09 42.5363 133.994 42.4403C133.898 42.3443 133.85 42.2043 133.85 42.0203V37.1243C133.85 36.9403 133.898 36.8043 133.994 36.7163C134.09 36.6203 134.226 36.5723 134.402 36.5723C134.578 36.5723 134.71 36.6203 134.798 36.7163C134.894 36.8043 134.942 36.9403 134.942 37.1243V39.0563H137.99V37.1243C137.99 36.9403 138.034 36.8043 138.122 36.7163C138.218 36.6203 138.354 36.5723 138.53 36.5723C138.706 36.5723 138.842 36.6203 138.938 36.7163C139.034 36.8043 139.082 36.9403 139.082 37.1243V42.0203C139.082 42.2043 139.034 42.3443 138.938 42.4403C138.842 42.5363 138.706 42.5843 138.53 42.5843C138.354 42.5843 138.218 42.5363 138.122 42.4403C138.034 42.3443 137.99 42.2043 137.99 42.0203V39.9323H134.942V42.0203C134.942 42.2043 134.898 42.3443 134.81 42.4403C134.722 42.5363 134.586 42.5843 134.402 42.5843Z" fill="white"/>
<path d="M127.218 44.7439C127.05 44.7439 126.918 44.6959 126.822 44.5999C126.726 44.5039 126.678 44.3679 126.678 44.1919V37.1239C126.678 36.9399 126.726 36.8039 126.822 36.7159C126.918 36.6199 127.05 36.5719 127.218 36.5719C127.394 36.5719 127.526 36.6199 127.614 36.7159C127.71 36.8039 127.758 36.9399 127.758 37.1239V38.2159L127.626 37.9999C127.754 37.5599 128.006 37.2079 128.382 36.9439C128.758 36.6799 129.21 36.5479 129.738 36.5479C130.258 36.5479 130.71 36.6719 131.094 36.9199C131.478 37.1599 131.778 37.5079 131.994 37.9639C132.21 38.4119 132.318 38.9479 132.318 39.5719C132.318 40.1879 132.21 40.7279 131.994 41.1919C131.786 41.6479 131.486 41.9999 131.094 42.2479C130.71 42.4879 130.258 42.6079 129.738 42.6079C129.218 42.6079 128.77 42.4759 128.394 42.2119C128.018 41.9479 127.766 41.5999 127.638 41.1679H127.77V44.1919C127.77 44.3679 127.722 44.5039 127.626 44.5999C127.53 44.6959 127.394 44.7439 127.218 44.7439ZM129.486 41.7439C129.83 41.7439 130.13 41.6599 130.386 41.4919C130.65 41.3239 130.854 41.0799 130.998 40.7599C131.142 40.4399 131.214 40.0439 131.214 39.5719C131.214 38.8679 131.058 38.3319 130.746 37.9639C130.434 37.5959 130.014 37.4119 129.486 37.4119C129.134 37.4119 128.826 37.4959 128.562 37.6639C128.306 37.8239 128.106 38.0639 127.962 38.3839C127.826 38.7039 127.758 39.0999 127.758 39.5719C127.758 40.2759 127.914 40.8159 128.226 41.1919C128.538 41.5599 128.958 41.7439 129.486 41.7439Z" fill="white"/>
<path d="M122.839 42.6079C122.207 42.6079 121.663 42.4879 121.207 42.2479C120.759 41.9999 120.411 41.6519 120.163 41.2039C119.915 40.7479 119.791 40.2119 119.791 39.5959C119.791 38.9879 119.911 38.4559 120.151 37.9999C120.399 37.5439 120.735 37.1879 121.159 36.9319C121.591 36.6759 122.083 36.5479 122.635 36.5479C123.027 36.5479 123.379 36.6159 123.691 36.7519C124.011 36.8799 124.283 37.0679 124.507 37.3159C124.731 37.5639 124.899 37.8679 125.011 38.2279C125.131 38.5799 125.191 38.9799 125.191 39.4279C125.191 39.5559 125.151 39.6559 125.071 39.7279C124.999 39.7919 124.891 39.8239 124.747 39.8239H120.643V39.1279H124.471L124.267 39.2959C124.267 38.8799 124.203 38.5279 124.075 38.2399C123.955 37.9439 123.775 37.7199 123.535 37.5679C123.303 37.4159 123.011 37.3399 122.659 37.3399C122.275 37.3399 121.947 37.4319 121.675 37.6159C121.403 37.7919 121.195 38.0439 121.051 38.3719C120.907 38.6919 120.835 39.0639 120.835 39.4879V39.5599C120.835 40.2799 121.007 40.8239 121.351 41.1919C121.695 41.5599 122.191 41.7439 122.839 41.7439C123.095 41.7439 123.355 41.7119 123.619 41.6479C123.891 41.5839 124.151 41.4679 124.399 41.2999C124.519 41.2279 124.627 41.1959 124.723 41.2039C124.827 41.2039 124.911 41.2359 124.975 41.2999C125.039 41.3559 125.079 41.4279 125.095 41.5159C125.111 41.5959 125.099 41.6839 125.059 41.7799C125.019 41.8759 124.943 41.9599 124.831 42.0319C124.567 42.2159 124.251 42.3599 123.883 42.4639C123.523 42.5599 123.175 42.6079 122.839 42.6079Z" fill="white"/>
<path d="M116.548 42.5842C116.372 42.5842 116.236 42.5363 116.14 42.4402C116.044 42.3442 115.996 42.2042 115.996 42.0202V37.5322H114.292C113.972 37.5322 113.812 37.3842 113.812 37.0882C113.812 36.9522 113.856 36.8482 113.944 36.7762C114.032 36.6962 114.148 36.6562 114.292 36.6562H118.78C119.108 36.6562 119.272 36.8002 119.272 37.0882C119.272 37.2322 119.228 37.3442 119.14 37.4243C119.06 37.4962 118.94 37.5322 118.78 37.5322H117.088V42.0202C117.088 42.2042 117.04 42.3442 116.944 42.4402C116.856 42.5363 116.724 42.5842 116.548 42.5842Z" fill="white"/>
<path d="M108.222 42.5843C108.046 42.5843 107.91 42.5363 107.814 42.4403C107.718 42.3443 107.67 42.2043 107.67 42.0203V37.1243C107.67 36.9403 107.718 36.8043 107.814 36.7163C107.91 36.6203 108.046 36.5723 108.222 36.5723C108.398 36.5723 108.53 36.6203 108.618 36.7163C108.714 36.8043 108.762 36.9403 108.762 37.1243V39.0563H111.81V37.1243C111.81 36.9403 111.854 36.8043 111.942 36.7163C112.038 36.6203 112.174 36.5723 112.35 36.5723C112.526 36.5723 112.662 36.6203 112.758 36.7163C112.854 36.8043 112.902 36.9403 112.902 37.1243V42.0203C112.902 42.2043 112.854 42.3443 112.758 42.4403C112.662 42.5363 112.526 42.5843 112.35 42.5843C112.174 42.5843 112.038 42.5363 111.942 42.4403C111.854 42.3443 111.81 42.2043 111.81 42.0203V39.9323H108.762V42.0203C108.762 42.2043 108.718 42.3443 108.63 42.4403C108.542 42.5363 108.406 42.5843 108.222 42.5843Z" fill="white"/>
<path d="M101.119 42.5843C101.015 42.5843 100.923 42.5643 100.843 42.5243C100.771 42.4843 100.715 42.4203 100.675 42.3323C100.635 42.2443 100.615 42.1323 100.615 41.9963V37.1003C100.615 36.9323 100.659 36.8043 100.747 36.7163C100.835 36.6203 100.959 36.5723 101.119 36.5723C101.271 36.5723 101.391 36.6203 101.479 36.7163C101.567 36.8043 101.611 36.9323 101.611 37.1003V41.4323H101.299L104.683 36.9203C104.747 36.8323 104.827 36.7523 104.923 36.6803C105.019 36.6083 105.147 36.5723 105.307 36.5723C105.419 36.5723 105.511 36.5923 105.583 36.6323C105.655 36.6723 105.707 36.7363 105.739 36.8243C105.779 36.9043 105.799 37.0123 105.799 37.1483V42.0563C105.799 42.2163 105.755 42.3443 105.667 42.4403C105.587 42.5363 105.471 42.5843 105.319 42.5843C105.151 42.5843 105.023 42.5363 104.935 42.4403C104.855 42.3443 104.815 42.2163 104.815 42.0563V37.7123H105.127L101.743 42.2363C101.679 42.3243 101.599 42.4043 101.503 42.4763C101.407 42.5483 101.279 42.5843 101.119 42.5843Z" fill="white"/>
<path d="M91.4292 42.5003C91.2452 42.5003 91.1052 42.4523 91.0092 42.3563C90.9132 42.2603 90.8652 42.1203 90.8652 41.9363V37.2203C90.8652 37.0363 90.9132 36.8963 91.0092 36.8003C91.1052 36.7043 91.2452 36.6562 91.4292 36.6562H93.7812C94.2532 36.6562 94.6372 36.7162 94.9332 36.8362C95.2372 36.9562 95.4612 37.1283 95.6052 37.3523C95.7492 37.5763 95.8212 37.8562 95.8212 38.1922C95.8212 38.5602 95.6932 38.8723 95.4372 39.1283C95.1812 39.3843 94.8452 39.5363 94.4292 39.5842V39.4282C94.9252 39.4442 95.3132 39.5883 95.5932 39.8602C95.8732 40.1242 96.0132 40.4643 96.0132 40.8803C96.0132 41.3763 95.8292 41.7723 95.4612 42.0683C95.0932 42.3563 94.5652 42.5003 93.8772 42.5003H91.4292ZM91.8972 41.7803H93.8172C94.2012 41.7803 94.4932 41.7003 94.6932 41.5403C94.9012 41.3723 95.0052 41.1363 95.0052 40.8323C95.0052 40.5203 94.9012 40.2843 94.6932 40.1242C94.4932 39.9643 94.2012 39.8843 93.8172 39.8843H91.8972V41.7803ZM91.8972 39.1642H93.7212C94.0652 39.1642 94.3292 39.0842 94.5132 38.9243C94.7052 38.7643 94.8012 38.5443 94.8012 38.2643C94.8012 37.9763 94.7052 37.7562 94.5132 37.6042C94.3292 37.4523 94.0652 37.3763 93.7212 37.3763H91.8972V39.1642Z" fill="white"/>
<path d="M81.8782 42.5837C81.7022 42.5837 81.5662 42.5357 81.4702 42.4397C81.3742 42.3437 81.3262 42.2037 81.3262 42.0197V37.1477C81.3262 36.9717 81.3742 36.8357 81.4702 36.7397C81.5662 36.6437 81.7022 36.5957 81.8782 36.5957C82.0542 36.5957 82.1862 36.6437 82.2742 36.7397C82.3702 36.8357 82.4182 36.9717 82.4182 37.1477V39.0557H83.4502L85.1782 36.8357C85.2582 36.7237 85.3502 36.6557 85.4542 36.6317C85.5582 36.5997 85.6582 36.5997 85.7542 36.6317C85.8502 36.6557 85.9302 36.7077 85.9942 36.7877C86.0582 36.8677 86.0902 36.9597 86.0902 37.0637C86.0902 37.1677 86.0462 37.2757 85.9582 37.3877L84.3262 39.5117L84.0502 39.1757C84.2662 39.1997 84.4582 39.2557 84.6262 39.3437C84.7942 39.4317 84.9542 39.5637 85.1062 39.7397C85.2582 39.9157 85.4222 40.1517 85.5982 40.4477L86.4142 41.8397C86.4862 41.9597 86.5102 42.0717 86.4862 42.1757C86.4702 42.2797 86.4222 42.3677 86.3422 42.4397C86.2702 42.5037 86.1822 42.5437 86.0782 42.5597C85.9742 42.5837 85.8702 42.5717 85.7662 42.5237C85.6622 42.4837 85.5742 42.4037 85.5022 42.2837L84.5902 40.7477C84.4622 40.5317 84.3382 40.3637 84.2182 40.2437C84.0982 40.1237 83.9662 40.0397 83.8222 39.9917C83.6782 39.9437 83.5022 39.9197 83.2942 39.9197H82.4182V42.0197C82.4182 42.2037 82.3702 42.3437 82.2742 42.4397C82.1862 42.5357 82.0542 42.5837 81.8782 42.5837Z" fill="white"/>
<path d="M74.7755 42.5843C74.6715 42.5843 74.5795 42.5643 74.4995 42.5243C74.4275 42.4843 74.3715 42.4203 74.3315 42.3323C74.2915 42.2443 74.2715 42.1323 74.2715 41.9963V37.1003C74.2715 36.9323 74.3155 36.8043 74.4035 36.7163C74.4915 36.6203 74.6155 36.5723 74.7755 36.5723C74.9275 36.5723 75.0475 36.6203 75.1355 36.7163C75.2235 36.8043 75.2675 36.9323 75.2675 37.1003V41.4323H74.9555L78.3395 36.9203C78.4035 36.8323 78.4835 36.7523 78.5795 36.6803C78.6755 36.6083 78.8035 36.5723 78.9635 36.5723C79.0755 36.5723 79.1675 36.5923 79.2395 36.6323C79.3115 36.6723 79.3635 36.7363 79.3955 36.8243C79.4355 36.9043 79.4555 37.0123 79.4555 37.1483V42.0563C79.4555 42.2163 79.4115 42.3443 79.3235 42.4403C79.2435 42.5363 79.1275 42.5843 78.9755 42.5843C78.8075 42.5843 78.6795 42.5363 78.5915 42.4403C78.5115 42.3443 78.4715 42.2163 78.4715 42.0563V37.7123H78.7835L75.3995 42.2363C75.3355 42.3243 75.2555 42.4043 75.1595 42.4763C75.0635 42.5483 74.9355 42.5843 74.7755 42.5843Z" fill="white"/>
<path d="M67.7219 42.5843C67.5459 42.5843 67.4099 42.5363 67.3139 42.4403C67.2179 42.3443 67.1699 42.2043 67.1699 42.0203V37.1243C67.1699 36.9403 67.2179 36.8043 67.3139 36.7163C67.4099 36.6203 67.5459 36.5723 67.7219 36.5723C67.8979 36.5723 68.0299 36.6203 68.1179 36.7163C68.2139 36.8043 68.2619 36.9403 68.2619 37.1243V39.0563H71.3099V37.1243C71.3099 36.9403 71.3539 36.8043 71.4419 36.7163C71.5379 36.6203 71.6739 36.5723 71.8499 36.5723C72.0259 36.5723 72.1619 36.6203 72.2579 36.7163C72.3539 36.8043 72.4019 36.9403 72.4019 37.1243V42.0203C72.4019 42.2043 72.3539 42.3443 72.2579 42.4403C72.1619 42.5363 72.0259 42.5843 71.8499 42.5843C71.6739 42.5843 71.5379 42.5363 71.4419 42.4403C71.3539 42.3443 71.3099 42.2043 71.3099 42.0203V39.9323H68.2619V42.0203C68.2619 42.2043 68.2179 42.3443 68.1299 42.4403C68.0419 42.5363 67.9059 42.5843 67.7219 42.5843Z" fill="white"/>
<path d="M65.4418 44.1443C65.2978 44.1443 65.1818 44.1043 65.0938 44.0243C65.0138 43.9443 64.9738 43.8243 64.9738 43.6643V42.5003H57.7378C57.5538 42.5003 57.4138 42.4523 57.3178 42.3563C57.2218 42.2603 57.1738 42.1203 57.1738 41.9363V37.1243C57.1738 36.9403 57.2178 36.8043 57.3058 36.7163C57.4018 36.6203 57.5298 36.5723 57.6898 36.5723C57.8658 36.5723 57.9978 36.6203 58.0858 36.7163C58.1738 36.8043 58.2178 36.9403 58.2178 37.1243V41.6243H60.5578V37.1243C60.5578 36.9403 60.6018 36.8043 60.6898 36.7163C60.7858 36.6203 60.9138 36.5723 61.0738 36.5723C61.2498 36.5723 61.3818 36.6203 61.4698 36.7163C61.5578 36.8043 61.6018 36.9403 61.6018 37.1243V41.6243H63.9418V37.1243C63.9418 36.9403 63.9858 36.8043 64.0738 36.7163C64.1698 36.6203 64.2978 36.5723 64.4578 36.5723C64.6258 36.5723 64.7538 36.6203 64.8418 36.7163C64.9378 36.8043 64.9858 36.9403 64.9858 37.1243V42.1283L64.4818 41.6243H65.3818C65.5498 41.6243 65.6778 41.6723 65.7658 41.7683C65.8618 41.8563 65.9098 41.9843 65.9098 42.1523V43.6643C65.9098 43.9843 65.7538 44.1443 65.4418 44.1443Z" fill="white"/>
<path d="M52.8027 42.6079C52.2267 42.6079 51.7267 42.4839 51.3027 42.2359C50.8787 41.9879 50.5507 41.6359 50.3187 41.1799C50.0867 40.7239 49.9707 40.1879 49.9707 39.5719C49.9707 39.1079 50.0347 38.6919 50.1627 38.3239C50.2987 37.9479 50.4907 37.6279 50.7387 37.3639C50.9867 37.0999 51.2827 36.8999 51.6267 36.7639C51.9787 36.6199 52.3707 36.5479 52.8027 36.5479C53.3787 36.5479 53.8787 36.6719 54.3027 36.9199C54.7267 37.1679 55.0547 37.5199 55.2867 37.9759C55.5187 38.4239 55.6347 38.9559 55.6347 39.5719C55.6347 40.0359 55.5667 40.4559 55.4307 40.8319C55.3027 41.2079 55.1147 41.5279 54.8667 41.7919C54.6187 42.0559 54.3187 42.2599 53.9667 42.4039C53.6227 42.5399 53.2347 42.6079 52.8027 42.6079ZM52.8027 41.7439C53.1547 41.7439 53.4587 41.6599 53.7147 41.4919C53.9787 41.3239 54.1787 41.0799 54.3147 40.7599C54.4587 40.4399 54.5307 40.0439 54.5307 39.5719C54.5307 38.8679 54.3747 38.3319 54.0627 37.9639C53.7507 37.5959 53.3307 37.4119 52.8027 37.4119C52.4587 37.4119 52.1547 37.4959 51.8907 37.6639C51.6347 37.8239 51.4347 38.0639 51.2907 38.3839C51.1467 38.7039 51.0747 39.0999 51.0747 39.5719C51.0747 40.2759 51.2307 40.8159 51.5427 41.1919C51.8627 41.5599 52.2827 41.7439 52.8027 41.7439Z" fill="white"/>
<path d="M42.8179 42.5843C42.6659 42.5843 42.5459 42.5403 42.4579 42.4523C42.3779 42.3563 42.3379 42.2243 42.3379 42.0563V37.1603C42.3379 37.0323 42.3539 36.9243 42.3859 36.8363C42.4259 36.7483 42.4819 36.6843 42.5539 36.6443C42.6259 36.5963 42.7179 36.5723 42.8299 36.5723C42.9339 36.5723 43.0219 36.5923 43.0939 36.6323C43.1659 36.6643 43.2259 36.7083 43.2739 36.7643C43.3299 36.8203 43.3779 36.8883 43.4179 36.9683L45.3979 40.4603L47.3659 36.9683C47.4139 36.8803 47.4619 36.8083 47.5099 36.7523C47.5579 36.6963 47.6179 36.6523 47.6899 36.6203C47.7619 36.5883 47.8499 36.5723 47.9539 36.5723C48.1219 36.5723 48.2459 36.6243 48.3259 36.7283C48.4059 36.8243 48.4459 36.9683 48.4459 37.1603V42.0563C48.4459 42.2243 48.4019 42.3563 48.3139 42.4523C48.2339 42.5403 48.1179 42.5843 47.9659 42.5843C47.8139 42.5843 47.6939 42.5403 47.6059 42.4523C47.5179 42.3563 47.4739 42.2243 47.4739 42.0563V37.9163H47.7499L45.7819 41.3603C45.7419 41.4243 45.6939 41.4843 45.6379 41.5403C45.5819 41.5883 45.5019 41.6123 45.3979 41.6123C45.2859 41.6123 45.2019 41.5883 45.1459 41.5403C45.0979 41.4843 45.0539 41.4243 45.0139 41.3603L43.0339 37.9163H43.2979V42.0563C43.2979 42.2243 43.2579 42.3563 43.1779 42.4523C43.0979 42.5403 42.9779 42.5843 42.8179 42.5843Z" fill="white"/>
<path d="M37.9668 42.6079C37.3908 42.6079 36.8908 42.4839 36.4668 42.2359C36.0428 41.9879 35.7148 41.6359 35.4828 41.1799C35.2508 40.7239 35.1348 40.1879 35.1348 39.5719C35.1348 39.1079 35.1988 38.6919 35.3268 38.3239C35.4628 37.9479 35.6548 37.6279 35.9028 37.3639C36.1508 37.0999 36.4468 36.8999 36.7908 36.7639C37.1428 36.6199 37.5348 36.5479 37.9668 36.5479C38.5428 36.5479 39.0428 36.6719 39.4668 36.9199C39.8908 37.1679 40.2188 37.5199 40.4508 37.9759C40.6828 38.4239 40.7988 38.9559 40.7988 39.5719C40.7988 40.0359 40.7308 40.4559 40.5948 40.8319C40.4668 41.2079 40.2788 41.5279 40.0308 41.7919C39.7828 42.0559 39.4828 42.2599 39.1308 42.4039C38.7868 42.5399 38.3988 42.6079 37.9668 42.6079ZM37.9668 41.7439C38.3188 41.7439 38.6228 41.6599 38.8788 41.4919C39.1428 41.3239 39.3428 41.0799 39.4788 40.7599C39.6228 40.4399 39.6948 40.0439 39.6948 39.5719C39.6948 38.8679 39.5388 38.3319 39.2268 37.9639C38.9148 37.5959 38.4948 37.4119 37.9668 37.4119C37.6228 37.4119 37.3188 37.4959 37.0548 37.6639C36.7988 37.8239 36.5988 38.0639 36.4548 38.3839C36.3108 38.7039 36.2388 39.0999 36.2388 39.5719C36.2388 40.2759 36.3948 40.8159 36.7068 41.1919C37.0268 41.5599 37.4468 41.7439 37.9668 41.7439Z" fill="white"/>
<path d="M28.968 42.5842C28.792 42.5842 28.656 42.5363 28.56 42.4402C28.464 42.3442 28.416 42.2042 28.416 42.0202V37.2803C28.416 37.0803 28.468 36.9283 28.572 36.8243C28.684 36.7123 28.84 36.6562 29.04 36.6562H32.988C33.188 36.6562 33.34 36.7123 33.444 36.8243C33.556 36.9283 33.612 37.0803 33.612 37.2803V42.0202C33.612 42.2042 33.564 42.3442 33.468 42.4402C33.372 42.5363 33.236 42.5842 33.06 42.5842C32.884 42.5842 32.748 42.5363 32.652 42.4402C32.564 42.3442 32.52 42.2042 32.52 42.0202V37.5322H29.508V42.0202C29.508 42.2042 29.464 42.3442 29.376 42.4402C29.288 42.5363 29.152 42.5842 28.968 42.5842Z" fill="white"/>
<path d="M16.1714 42.5003C15.9874 42.5003 15.8474 42.4523 15.7514 42.3563C15.6554 42.2603 15.6074 42.1203 15.6074 41.9363V37.1243C15.6074 36.9403 15.6514 36.8043 15.7394 36.7163C15.8354 36.6203 15.9634 36.5723 16.1234 36.5723C16.2994 36.5723 16.4314 36.6203 16.5194 36.7163C16.6074 36.8043 16.6514 36.9403 16.6514 37.1243V41.6243H18.9914V37.1243C18.9914 36.9403 19.0354 36.8043 19.1234 36.7163C19.2194 36.6203 19.3474 36.5723 19.5074 36.5723C19.6834 36.5723 19.8154 36.6203 19.9034 36.7163C19.9914 36.8043 20.0354 36.9403 20.0354 37.1243V41.6243H22.3754V37.1243C22.3754 36.9403 22.4194 36.8043 22.5074 36.7163C22.6034 36.6203 22.7314 36.5723 22.8914 36.5723C23.0594 36.5723 23.1874 36.6203 23.2754 36.7163C23.3714 36.8043 23.4194 36.9403 23.4194 37.1243V41.9363C23.4194 42.1203 23.3674 42.2603 23.2634 42.3563C23.1674 42.4523 23.0314 42.5003 22.8554 42.5003H16.1714Z" fill="white"/>
<path d="M10.9401 42.6079C10.5401 42.6079 10.1761 42.5279 9.84813 42.3679C9.52813 42.2079 9.27612 41.9919 9.09212 41.7199C8.91612 41.4479 8.82812 41.1439 8.82812 40.8079C8.82812 40.3759 8.93613 40.0359 9.15213 39.7879C9.36813 39.5399 9.73213 39.3639 10.2441 39.2599C10.7561 39.1479 11.4441 39.0919 12.3081 39.0919H12.8721V39.7879H12.3321C11.7161 39.7879 11.2281 39.8159 10.8681 39.8719C10.5161 39.9279 10.2681 40.0279 10.1241 40.1719C9.98013 40.3079 9.90812 40.4999 9.90812 40.7479C9.90812 41.0599 10.0161 41.3159 10.2321 41.5159C10.4561 41.7159 10.7601 41.8159 11.1441 41.8159C11.4481 41.8159 11.7161 41.7439 11.9481 41.5999C12.1801 41.4479 12.3641 41.2479 12.5001 40.9999C12.6361 40.7439 12.7041 40.4519 12.7041 40.1239V38.7439C12.7041 38.2719 12.6081 37.9319 12.4161 37.7239C12.2241 37.5079 11.9001 37.3999 11.4441 37.3999C11.1801 37.3999 10.9081 37.4359 10.6281 37.5079C10.3481 37.5799 10.0561 37.6919 9.75212 37.8439C9.63212 37.8999 9.52813 37.9199 9.44013 37.9039C9.35213 37.8799 9.28012 37.8319 9.22412 37.7599C9.17612 37.6799 9.14813 37.5959 9.14013 37.5079C9.14013 37.4119 9.16012 37.3199 9.20012 37.2319C9.24812 37.1439 9.32813 37.0799 9.44013 37.0399C9.79213 36.8639 10.1401 36.7399 10.4841 36.6679C10.8361 36.5879 11.1641 36.5479 11.4681 36.5479C11.9881 36.5479 12.4161 36.6319 12.7521 36.7999C13.0881 36.9599 13.3401 37.2119 13.5081 37.5559C13.6761 37.8919 13.7601 38.3239 13.7601 38.8519V42.0199C13.7601 42.2039 13.7161 42.3439 13.6281 42.4399C13.5401 42.5359 13.4121 42.5839 13.2441 42.5839C13.0841 42.5839 12.9561 42.5359 12.8601 42.4399C12.7721 42.3439 12.7281 42.2039 12.7281 42.0199V41.1679H12.8361C12.7721 41.4639 12.6521 41.7199 12.4761 41.9359C12.3001 42.1519 12.0801 42.3199 11.8161 42.4399C11.5601 42.5519 11.2681 42.6079 10.9401 42.6079Z" fill="white"/>
<path d="M1.61953 42.5C1.42753 42.5 1.27953 42.448 1.17553 42.344C1.07153 42.24 1.01953 42.092 1.01953 41.9V34.64C1.01953 34.448 1.07153 34.3 1.17553 34.196C1.27953 34.092 1.42753 34.04 1.61953 34.04H4.46353C5.04753 34.04 5.54353 34.128 5.95153 34.304C6.36753 34.48 6.68353 34.732 6.89953 35.06C7.11553 35.388 7.22353 35.784 7.22353 36.248C7.22353 36.768 7.07153 37.204 6.76753 37.556C6.46353 37.908 6.04753 38.144 5.51953 38.264V38.084C6.11153 38.156 6.57553 38.376 6.91153 38.744C7.25553 39.104 7.42753 39.576 7.42753 40.16C7.42753 40.912 7.17953 41.492 6.68353 41.9C6.19553 42.3 5.50353 42.5 4.60753 42.5H1.61953ZM2.09953 41.624H4.48753C5.11153 41.624 5.57553 41.504 5.87953 41.264C6.18353 41.016 6.33553 40.64 6.33553 40.136C6.33553 39.632 6.18353 39.26 5.87953 39.02C5.57553 38.78 5.11153 38.66 4.48753 38.66H2.09953V41.624ZM2.09953 37.772H4.29553C4.90353 37.772 5.35953 37.652 5.66353 37.412C5.97553 37.164 6.13153 36.808 6.13153 36.344C6.13153 35.88 5.97553 35.528 5.66353 35.288C5.35953 35.04 4.90353 34.916 4.29553 34.916H2.09953V37.772Z" fill="white"/>
</svg>
