<svg width="163" height="46" viewBox="0 0 163 46" fill="none" xmlns="http://www.w3.org/2000/svg">
<path d="M153.142 29.9C151.649 29.9 150.316 29.54 149.142 28.82C147.996 28.1 147.196 27.0333 146.742 25.62L147.102 24.62L146.702 27.3C146.596 28.1266 146.316 28.7533 145.862 29.18C145.436 29.6066 144.809 29.82 143.982 29.82C143.209 29.82 142.622 29.5667 142.222 29.06C141.849 28.5267 141.729 27.8067 141.862 26.9L145.582 3.49998C145.716 2.67331 146.022 2.04665 146.502 1.61998C146.982 1.19331 147.636 0.97998 148.462 0.97998C149.236 0.97998 149.809 1.23331 150.182 1.73998C150.556 2.24665 150.676 2.96665 150.542 3.89998L148.982 13.62H148.582C149.302 12.34 150.262 11.34 151.462 10.62C152.662 9.89998 154.036 9.53998 155.582 9.53998C157.076 9.53998 158.369 9.88665 159.462 10.58C160.582 11.2466 161.449 12.22 162.062 13.5C162.676 14.7533 162.982 16.2466 162.982 17.98C162.982 20.1933 162.582 22.2066 161.782 24.02C161.009 25.8067 159.889 27.2333 158.422 28.3C156.956 29.3666 155.196 29.9 153.142 29.9ZM152.222 26.1C153.449 26.1 154.476 25.7533 155.302 25.06C156.156 24.3667 156.809 23.42 157.262 22.22C157.716 21.02 157.942 19.6866 157.942 18.22C157.942 16.6466 157.556 15.4466 156.782 14.62C156.036 13.7666 154.996 13.34 153.662 13.34C152.462 13.34 151.436 13.6866 150.582 14.38C149.729 15.0733 149.076 16.02 148.622 17.22C148.169 18.3933 147.942 19.7267 147.942 21.22C147.942 22.7933 148.316 24.0067 149.062 24.86C149.836 25.6866 150.889 26.1 152.222 26.1Z" fill="#3F3380"/>
<path d="M129.942 29.9C127.968 29.9 126.248 29.54 124.782 28.82C123.342 28.0734 122.222 27.0334 121.422 25.7C120.622 24.3667 120.222 22.8067 120.222 21.02C120.222 18.8334 120.675 16.8867 121.582 15.18C122.515 13.4467 123.795 12.0734 125.422 11.06C127.048 10.0467 128.915 9.54004 131.022 9.54004C132.648 9.54004 134.008 9.82004 135.102 10.38C136.195 10.94 137.062 11.7 137.702 12.66C138.342 13.5934 138.768 14.66 138.982 15.86C139.195 17.06 139.235 18.2867 139.102 19.54C139.048 20.1 138.902 20.46 138.662 20.62C138.422 20.78 138.088 20.86 137.662 20.86H124.222L124.622 17.98H135.822L135.142 18.58C135.302 17.5134 135.262 16.5667 135.022 15.74C134.782 14.8867 134.328 14.2067 133.662 13.7C133.022 13.1934 132.128 12.94 130.982 12.94C129.808 12.94 128.822 13.2067 128.022 13.74C127.222 14.2734 126.595 14.9667 126.142 15.82C125.688 16.6467 125.382 17.54 125.222 18.5L125.022 19.74C124.702 21.6867 125.022 23.2334 125.982 24.38C126.942 25.5267 128.408 26.1 130.382 26.1C131.182 26.1 132.008 26.02 132.862 25.86C133.715 25.6734 134.488 25.38 135.182 24.98C135.688 24.6867 136.128 24.5667 136.502 24.62C136.902 24.6467 137.208 24.7934 137.422 25.06C137.662 25.3 137.808 25.6067 137.862 25.98C137.915 26.3267 137.848 26.7 137.662 27.1C137.502 27.4734 137.208 27.8067 136.782 28.1C135.848 28.7134 134.742 29.1667 133.462 29.46C132.182 29.7534 131.008 29.9 129.942 29.9Z" fill="#3F3380"/>
<path d="M93.6309 29.8199C92.9642 29.8199 92.4042 29.6332 91.9509 29.2599C91.4975 28.8865 91.1775 28.2999 90.9909 27.4999L87.5909 13.0599C87.4309 12.3665 87.4175 11.7665 87.5509 11.2599C87.7109 10.7532 87.9909 10.3532 88.3909 10.0599C88.7909 9.76654 89.2842 9.61987 89.8709 9.61987C90.5109 9.61987 90.9909 9.79321 91.3109 10.1399C91.6575 10.4599 91.9109 11.0199 92.0709 11.8199L94.7509 24.9399H93.7509L101.071 11.0999C101.364 10.5665 101.684 10.1932 102.031 9.97987C102.404 9.73987 102.871 9.61987 103.431 9.61987C103.964 9.61987 104.404 9.76654 104.751 10.0599C105.124 10.3532 105.378 10.8199 105.511 11.4599L108.271 24.9399H107.471L114.511 11.4599C114.884 10.7665 115.271 10.2865 115.671 10.0199C116.071 9.75321 116.604 9.61987 117.271 9.61987C117.911 9.61987 118.404 9.76654 118.751 10.0599C119.098 10.3265 119.284 10.6865 119.311 11.1399C119.338 11.5932 119.204 12.0999 118.911 12.6599L110.511 27.9399C110.164 28.5799 109.738 29.0599 109.231 29.3799C108.751 29.6732 108.178 29.8199 107.511 29.8199C106.844 29.8199 106.271 29.6332 105.791 29.2599C105.338 28.8599 105.018 28.2732 104.831 27.4999L101.831 13.8599H104.111L96.6709 27.8599C96.3242 28.5265 95.8975 29.0199 95.3909 29.3399C94.9109 29.6599 94.3242 29.8199 93.6309 29.8199Z" fill="#3F3380"/>
<path d="M80.1094 29.7C79.2027 29.7 78.4694 29.42 77.9094 28.86C77.376 28.3 77.1094 27.58 77.1094 26.7C77.1094 25.8467 77.376 25.1534 77.9094 24.62C78.4694 24.06 79.2027 23.78 80.1094 23.78C81.0427 23.78 81.7627 24.06 82.2694 24.62C82.8027 25.1534 83.0694 25.8467 83.0694 26.7C83.0694 27.58 82.8027 28.3 82.2694 28.86C81.7627 29.42 81.0427 29.7 80.1094 29.7Z" fill="#3F3380"/>
<path d="M52.7664 29.8199C52.0731 29.8199 51.5264 29.6199 51.1264 29.2199C50.7531 28.7932 50.5664 28.2065 50.5664 27.4599V12.3399C50.5664 11.7532 50.6464 11.2599 50.8064 10.8599C50.9664 10.4599 51.2197 10.1532 51.5664 9.93987C51.9131 9.72654 52.3397 9.61987 52.8464 9.61987C53.3531 9.61987 53.7664 9.71321 54.0864 9.89987C54.4331 10.0599 54.7264 10.2732 54.9664 10.5399C55.2064 10.8065 55.4064 11.0999 55.5664 11.4199L61.4464 21.4999L67.3264 11.4199C67.5131 11.0732 67.7131 10.7665 67.9264 10.4999C68.1664 10.2332 68.4464 10.0199 68.7664 9.85987C69.1131 9.69987 69.5264 9.61987 70.0064 9.61987C70.7797 9.61987 71.3531 9.85987 71.7264 10.3399C72.0997 10.7932 72.2864 11.4599 72.2864 12.3399V27.4599C72.2864 28.2065 72.0997 28.7932 71.7264 29.2199C71.3531 29.6199 70.8064 29.8199 70.0864 29.8199C69.3931 29.8199 68.8464 29.6199 68.4464 29.2199C68.0731 28.7932 67.8864 28.2065 67.8864 27.4599V15.6999H68.8464L63.1264 25.4599C62.9931 25.6999 62.7931 25.9399 62.5264 26.1799C62.2864 26.3932 61.9264 26.4999 61.4464 26.4999C60.9397 26.4999 60.5664 26.3799 60.3264 26.1399C60.0864 25.8999 59.8997 25.6732 59.7664 25.4599L54.0064 15.6999H54.9664V27.4599C54.9664 28.2065 54.7797 28.7932 54.4064 29.2199C54.0331 29.6199 53.4864 29.8199 52.7664 29.8199Z" fill="#3F3380"/>
<path d="M30.7427 29.8199C29.9427 29.8199 29.316 29.6066 28.8627 29.1799C28.436 28.7266 28.2227 28.0866 28.2227 27.2599V12.2199C28.2227 11.3932 28.436 10.7666 28.8627 10.3399C29.316 9.88658 29.9427 9.65991 30.7427 9.65991C31.5427 9.65991 32.156 9.88658 32.5827 10.3399C33.0093 10.7666 33.2227 11.3932 33.2227 12.2199V17.5399H36.0627L41.0627 10.8199C41.436 10.3132 41.8627 9.99324 42.3427 9.85991C42.8227 9.69991 43.276 9.68658 43.7027 9.81991C44.156 9.95325 44.516 10.1932 44.7827 10.5399C45.076 10.8866 45.2227 11.2999 45.2227 11.7799C45.2493 12.2332 45.076 12.7132 44.7027 13.2199L39.9427 19.7399L38.8627 18.1399C39.5827 18.2199 40.2227 18.4199 40.7827 18.7399C41.3693 19.0599 41.9027 19.5132 42.3827 20.0999C42.8893 20.6599 43.3827 21.3666 43.8627 22.2199L46.2227 26.4199C46.5427 26.9799 46.6493 27.4999 46.5427 27.9799C46.4627 28.4332 46.236 28.8199 45.8627 29.1399C45.516 29.4599 45.1027 29.6599 44.6227 29.7399C44.1427 29.8199 43.6627 29.7532 43.1827 29.5399C42.7293 29.3532 42.3427 28.9799 42.0227 28.4199L39.3427 23.7399C38.996 23.1266 38.6493 22.6599 38.3027 22.3399C37.9827 21.9932 37.6093 21.7532 37.1827 21.6199C36.7827 21.4866 36.2893 21.4199 35.7027 21.4199H33.2227V27.2599C33.2227 28.0866 33.0093 28.7266 32.5827 29.1799C32.156 29.6066 31.5427 29.8199 30.7427 29.8199Z" fill="#3F3380"/>
<path d="M3.03984 29.8199C2.34651 29.8199 1.79984 29.6199 1.39984 29.2199C1.02651 28.7932 0.839844 28.2065 0.839844 27.4599V12.3399C0.839844 11.7532 0.919844 11.2599 1.07984 10.8599C1.23984 10.4599 1.49318 10.1532 1.83984 9.93987C2.18651 9.72654 2.61318 9.61987 3.11984 9.61987C3.62651 9.61987 4.03984 9.71321 4.35984 9.89987C4.70651 10.0599 4.99984 10.2732 5.23984 10.5399C5.47984 10.8065 5.67984 11.0999 5.83984 11.4199L11.7198 21.4999L17.5998 11.4199C17.7865 11.0732 17.9865 10.7665 18.1998 10.4999C18.4398 10.2332 18.7198 10.0199 19.0398 9.85987C19.3865 9.69987 19.7998 9.61987 20.2798 9.61987C21.0532 9.61987 21.6265 9.85987 21.9998 10.3399C22.3732 10.7932 22.5598 11.4599 22.5598 12.3399V27.4599C22.5598 28.2065 22.3732 28.7932 21.9998 29.2199C21.6265 29.6199 21.0798 29.8199 20.3598 29.8199C19.6665 29.8199 19.1198 29.6199 18.7198 29.2199C18.3465 28.7932 18.1598 28.2065 18.1598 27.4599V15.6999H19.1198L13.3998 25.4599C13.2665 25.6999 13.0665 25.9399 12.7998 26.1799C12.5598 26.3932 12.1998 26.4999 11.7198 26.4999C11.2132 26.4999 10.8398 26.3799 10.5998 26.1399C10.3598 25.8999 10.1732 25.6732 10.0398 25.4599L4.27984 15.6999H5.23984V27.4599C5.23984 28.2065 5.05318 28.7932 4.67984 29.2199C4.30651 29.6199 3.75984 29.8199 3.03984 29.8199Z" fill="#3F3380"/>
<path d="M155.558 42.6081C154.926 42.6081 154.382 42.4881 153.926 42.2481C153.478 42.0001 153.13 41.6521 152.882 41.2041C152.634 40.7481 152.51 40.2121 152.51 39.5961C152.51 38.9881 152.63 38.4561 152.87 38.0001C153.118 37.5441 153.454 37.1881 153.878 36.9321C154.31 36.6761 154.802 36.5481 155.354 36.5481C155.746 36.5481 156.098 36.6161 156.41 36.7521C156.73 36.8801 157.002 37.0681 157.226 37.3161C157.45 37.5641 157.618 37.8681 157.73 38.2281C157.85 38.5801 157.91 38.9801 157.91 39.4281C157.91 39.5561 157.87 39.6561 157.79 39.7281C157.718 39.7921 157.61 39.8241 157.466 39.8241H153.362V39.1281H157.19L156.986 39.2961C156.986 38.8801 156.922 38.5281 156.794 38.2401C156.674 37.9441 156.494 37.7201 156.254 37.5681C156.022 37.4161 155.73 37.3401 155.378 37.3401C154.994 37.3401 154.666 37.4321 154.394 37.6161C154.122 37.7921 153.914 38.0441 153.77 38.3721C153.626 38.6921 153.554 39.0641 153.554 39.4881V39.5601C153.554 40.2801 153.726 40.8241 154.07 41.1921C154.414 41.5601 154.91 41.7441 155.558 41.7441C155.814 41.7441 156.074 41.7121 156.338 41.6481C156.61 41.5841 156.87 41.4681 157.118 41.3001C157.238 41.2281 157.346 41.1961 157.442 41.2041C157.546 41.2041 157.63 41.2361 157.694 41.3001C157.758 41.3561 157.798 41.4281 157.814 41.5161C157.83 41.5961 157.818 41.6841 157.778 41.7801C157.738 41.8761 157.662 41.9601 157.55 42.0321C157.286 42.2161 156.97 42.3601 156.602 42.4641C156.242 42.5601 155.894 42.6081 155.558 42.6081Z" fill="#3F3380"/>
<path d="M149.266 42.584C149.09 42.584 148.954 42.536 148.858 42.44C148.762 42.344 148.714 42.204 148.714 42.02V37.532H147.01C146.69 37.532 146.53 37.384 146.53 37.088C146.53 36.952 146.574 36.848 146.662 36.776C146.75 36.696 146.866 36.656 147.01 36.656H151.498C151.826 36.656 151.99 36.8 151.99 37.088C151.99 37.232 151.946 37.344 151.858 37.424C151.778 37.496 151.658 37.532 151.498 37.532H149.806V42.02C149.806 42.204 149.758 42.344 149.662 42.44C149.574 42.536 149.442 42.584 149.266 42.584Z" fill="#3F3380"/>
<path d="M143.652 42.6081C143.02 42.6081 142.476 42.4881 142.02 42.2481C141.572 42.0001 141.224 41.6521 140.976 41.2041C140.728 40.7481 140.604 40.2121 140.604 39.5961C140.604 38.9881 140.724 38.4561 140.964 38.0001C141.212 37.5441 141.548 37.1881 141.972 36.9321C142.404 36.6761 142.896 36.5481 143.448 36.5481C143.84 36.5481 144.192 36.6161 144.504 36.7521C144.824 36.8801 145.096 37.0681 145.32 37.3161C145.544 37.5641 145.712 37.8681 145.824 38.2281C145.944 38.5801 146.004 38.9801 146.004 39.4281C146.004 39.5561 145.964 39.6561 145.884 39.7281C145.812 39.7921 145.704 39.8241 145.56 39.8241H141.456V39.1281H145.284L145.08 39.2961C145.08 38.8801 145.016 38.5281 144.888 38.2401C144.768 37.9441 144.588 37.7201 144.348 37.5681C144.116 37.4161 143.824 37.3401 143.472 37.3401C143.088 37.3401 142.76 37.4321 142.488 37.6161C142.216 37.7921 142.008 38.0441 141.864 38.3721C141.72 38.6921 141.648 39.0641 141.648 39.4881V39.5601C141.648 40.2801 141.82 40.8241 142.164 41.1921C142.508 41.5601 143.004 41.7441 143.652 41.7441C143.908 41.7441 144.168 41.7121 144.432 41.6481C144.704 41.5841 144.964 41.4681 145.212 41.3001C145.332 41.2281 145.44 41.1961 145.536 41.2041C145.64 41.2041 145.724 41.2361 145.788 41.3001C145.852 41.3561 145.892 41.4281 145.908 41.5161C145.924 41.5961 145.912 41.6841 145.872 41.7801C145.832 41.8761 145.756 41.9601 145.644 42.0321C145.38 42.2161 145.064 42.3601 144.696 42.4641C144.336 42.5601 143.988 42.6081 143.652 42.6081Z" fill="#3F3380"/>
<path d="M134.402 42.584C134.226 42.584 134.09 42.536 133.994 42.44C133.898 42.344 133.85 42.204 133.85 42.02V37.124C133.85 36.94 133.898 36.804 133.994 36.716C134.09 36.62 134.226 36.572 134.402 36.572C134.578 36.572 134.71 36.62 134.798 36.716C134.894 36.804 134.942 36.94 134.942 37.124V39.056H137.99V37.124C137.99 36.94 138.034 36.804 138.122 36.716C138.218 36.62 138.354 36.572 138.53 36.572C138.706 36.572 138.842 36.62 138.938 36.716C139.034 36.804 139.082 36.94 139.082 37.124V42.02C139.082 42.204 139.034 42.344 138.938 42.44C138.842 42.536 138.706 42.584 138.53 42.584C138.354 42.584 138.218 42.536 138.122 42.44C138.034 42.344 137.99 42.204 137.99 42.02V39.932H134.942V42.02C134.942 42.204 134.898 42.344 134.81 42.44C134.722 42.536 134.586 42.584 134.402 42.584Z" fill="#3F3380"/>
<path d="M127.218 44.7441C127.05 44.7441 126.918 44.6961 126.822 44.6001C126.726 44.5041 126.678 44.3681 126.678 44.1921V37.1241C126.678 36.9401 126.726 36.8041 126.822 36.7161C126.918 36.6201 127.05 36.5721 127.218 36.5721C127.394 36.5721 127.526 36.6201 127.614 36.7161C127.71 36.8041 127.758 36.9401 127.758 37.1241V38.2161L127.626 38.0001C127.754 37.5601 128.006 37.2081 128.382 36.9441C128.758 36.6801 129.21 36.5481 129.738 36.5481C130.258 36.5481 130.71 36.6721 131.094 36.9201C131.478 37.1601 131.778 37.5081 131.994 37.9641C132.21 38.4121 132.318 38.9481 132.318 39.5721C132.318 40.1881 132.21 40.7281 131.994 41.1921C131.786 41.6481 131.486 42.0001 131.094 42.2481C130.71 42.4881 130.258 42.6081 129.738 42.6081C129.218 42.6081 128.77 42.4761 128.394 42.2121C128.018 41.9481 127.766 41.6001 127.638 41.1681H127.77V44.1921C127.77 44.3681 127.722 44.5041 127.626 44.6001C127.53 44.6961 127.394 44.7441 127.218 44.7441ZM129.486 41.7441C129.83 41.7441 130.13 41.6601 130.386 41.4921C130.65 41.3241 130.854 41.0801 130.998 40.7601C131.142 40.4401 131.214 40.0441 131.214 39.5721C131.214 38.8681 131.058 38.3321 130.746 37.9641C130.434 37.5961 130.014 37.4121 129.486 37.4121C129.134 37.4121 128.826 37.4961 128.562 37.6641C128.306 37.8241 128.106 38.0641 127.962 38.3841C127.826 38.7041 127.758 39.1001 127.758 39.5721C127.758 40.2761 127.914 40.8161 128.226 41.1921C128.538 41.5601 128.958 41.7441 129.486 41.7441Z" fill="#3F3380"/>
<path d="M122.839 42.6081C122.207 42.6081 121.663 42.4881 121.207 42.2481C120.759 42.0001 120.411 41.6521 120.163 41.2041C119.915 40.7481 119.791 40.2121 119.791 39.5961C119.791 38.9881 119.911 38.4561 120.151 38.0001C120.399 37.5441 120.735 37.1881 121.159 36.9321C121.591 36.6761 122.083 36.5481 122.635 36.5481C123.027 36.5481 123.379 36.6161 123.691 36.7521C124.011 36.8801 124.283 37.0681 124.507 37.3161C124.731 37.5641 124.899 37.8681 125.011 38.2281C125.131 38.5801 125.191 38.9801 125.191 39.4281C125.191 39.5561 125.151 39.6561 125.071 39.7281C124.999 39.7921 124.891 39.8241 124.747 39.8241H120.643V39.1281H124.471L124.267 39.2961C124.267 38.8801 124.203 38.5281 124.075 38.2401C123.955 37.9441 123.775 37.7201 123.535 37.5681C123.303 37.4161 123.011 37.3401 122.659 37.3401C122.275 37.3401 121.947 37.4321 121.675 37.6161C121.403 37.7921 121.195 38.0441 121.051 38.3721C120.907 38.6921 120.835 39.0641 120.835 39.4881V39.5601C120.835 40.2801 121.007 40.8241 121.351 41.1921C121.695 41.5601 122.191 41.7441 122.839 41.7441C123.095 41.7441 123.355 41.7121 123.619 41.6481C123.891 41.5841 124.151 41.4681 124.399 41.3001C124.519 41.2281 124.627 41.1961 124.723 41.2041C124.827 41.2041 124.911 41.2361 124.975 41.3001C125.039 41.3561 125.079 41.4281 125.095 41.5161C125.111 41.5961 125.099 41.6841 125.059 41.7801C125.019 41.8761 124.943 41.9601 124.831 42.0321C124.567 42.2161 124.251 42.3601 123.883 42.4641C123.523 42.5601 123.175 42.6081 122.839 42.6081Z" fill="#3F3380"/>
<path d="M116.548 42.584C116.372 42.584 116.236 42.536 116.14 42.44C116.044 42.344 115.996 42.204 115.996 42.02V37.532H114.292C113.972 37.532 113.812 37.384 113.812 37.088C113.812 36.952 113.856 36.848 113.944 36.776C114.032 36.696 114.148 36.656 114.292 36.656H118.78C119.108 36.656 119.272 36.8 119.272 37.088C119.272 37.232 119.228 37.344 119.14 37.424C119.06 37.496 118.94 37.532 118.78 37.532H117.088V42.02C117.088 42.204 117.04 42.344 116.944 42.44C116.856 42.536 116.724 42.584 116.548 42.584Z" fill="#3F3380"/>
<path d="M108.222 42.584C108.046 42.584 107.91 42.536 107.814 42.44C107.718 42.344 107.67 42.204 107.67 42.02V37.124C107.67 36.94 107.718 36.804 107.814 36.716C107.91 36.62 108.046 36.572 108.222 36.572C108.398 36.572 108.53 36.62 108.618 36.716C108.714 36.804 108.762 36.94 108.762 37.124V39.056H111.81V37.124C111.81 36.94 111.854 36.804 111.942 36.716C112.038 36.62 112.174 36.572 112.35 36.572C112.526 36.572 112.662 36.62 112.758 36.716C112.854 36.804 112.902 36.94 112.902 37.124V42.02C112.902 42.204 112.854 42.344 112.758 42.44C112.662 42.536 112.526 42.584 112.35 42.584C112.174 42.584 112.038 42.536 111.942 42.44C111.854 42.344 111.81 42.204 111.81 42.02V39.932H108.762V42.02C108.762 42.204 108.718 42.344 108.63 42.44C108.542 42.536 108.406 42.584 108.222 42.584Z" fill="#3F3380"/>
<path d="M101.119 42.584C101.015 42.584 100.923 42.564 100.843 42.524C100.771 42.484 100.715 42.42 100.675 42.332C100.635 42.244 100.615 42.132 100.615 41.996V37.1C100.615 36.932 100.659 36.804 100.747 36.716C100.835 36.62 100.959 36.572 101.119 36.572C101.271 36.572 101.391 36.62 101.479 36.716C101.567 36.804 101.611 36.932 101.611 37.1V41.432H101.299L104.683 36.92C104.747 36.832 104.827 36.752 104.923 36.68C105.019 36.608 105.147 36.572 105.307 36.572C105.419 36.572 105.511 36.592 105.583 36.632C105.655 36.672 105.707 36.736 105.739 36.824C105.779 36.904 105.799 37.012 105.799 37.148V42.056C105.799 42.216 105.755 42.344 105.667 42.44C105.587 42.536 105.471 42.584 105.319 42.584C105.151 42.584 105.023 42.536 104.935 42.44C104.855 42.344 104.815 42.216 104.815 42.056V37.712H105.127L101.743 42.236C101.679 42.324 101.599 42.404 101.503 42.476C101.407 42.548 101.279 42.584 101.119 42.584Z" fill="#3F3380"/>
<path d="M91.4292 42.5C91.2452 42.5 91.1052 42.452 91.0092 42.356C90.9132 42.26 90.8652 42.12 90.8652 41.936V37.22C90.8652 37.036 90.9132 36.896 91.0092 36.8C91.1052 36.704 91.2452 36.656 91.4292 36.656H93.7812C94.2532 36.656 94.6372 36.716 94.9332 36.836C95.2372 36.956 95.4612 37.128 95.6052 37.352C95.7492 37.576 95.8212 37.856 95.8212 38.192C95.8212 38.56 95.6932 38.872 95.4372 39.128C95.1812 39.384 94.8452 39.536 94.4292 39.584V39.428C94.9252 39.444 95.3132 39.588 95.5932 39.86C95.8732 40.124 96.0132 40.464 96.0132 40.88C96.0132 41.376 95.8292 41.772 95.4612 42.068C95.0932 42.356 94.5652 42.5 93.8772 42.5H91.4292ZM91.8972 41.78H93.8172C94.2012 41.78 94.4932 41.7 94.6932 41.54C94.9012 41.372 95.0052 41.136 95.0052 40.832C95.0052 40.52 94.9012 40.284 94.6932 40.124C94.4932 39.964 94.2012 39.884 93.8172 39.884H91.8972V41.78ZM91.8972 39.164H93.7212C94.0652 39.164 94.3292 39.084 94.5132 38.924C94.7052 38.764 94.8012 38.544 94.8012 38.264C94.8012 37.976 94.7052 37.756 94.5132 37.604C94.3292 37.452 94.0652 37.376 93.7212 37.376H91.8972V39.164Z" fill="#3F3380"/>
<path d="M81.8782 42.5839C81.7022 42.5839 81.5662 42.5359 81.4702 42.4399C81.3742 42.3439 81.3262 42.2039 81.3262 42.0199V37.1479C81.3262 36.9719 81.3742 36.8359 81.4702 36.7399C81.5662 36.6439 81.7022 36.5959 81.8782 36.5959C82.0542 36.5959 82.1862 36.6439 82.2742 36.7399C82.3702 36.8359 82.4182 36.9719 82.4182 37.1479V39.0559H83.4502L85.1782 36.8359C85.2582 36.7239 85.3502 36.6559 85.4542 36.6319C85.5582 36.5999 85.6582 36.5999 85.7542 36.6319C85.8502 36.6559 85.9302 36.7079 85.9942 36.7879C86.0582 36.8679 86.0902 36.9599 86.0902 37.0639C86.0902 37.1679 86.0462 37.2759 85.9582 37.3879L84.3262 39.5119L84.0502 39.1759C84.2662 39.1999 84.4582 39.2559 84.6262 39.3439C84.7942 39.4319 84.9542 39.5639 85.1062 39.7399C85.2582 39.9159 85.4222 40.1519 85.5982 40.4479L86.4142 41.8399C86.4862 41.9599 86.5102 42.0719 86.4862 42.1759C86.4702 42.2799 86.4222 42.3679 86.3422 42.4399C86.2702 42.5039 86.1822 42.5439 86.0782 42.5599C85.9742 42.5839 85.8702 42.5719 85.7662 42.5239C85.6622 42.4839 85.5742 42.4039 85.5022 42.2839L84.5902 40.7479C84.4622 40.5319 84.3382 40.3639 84.2182 40.2439C84.0982 40.1239 83.9662 40.0399 83.8222 39.9919C83.6782 39.9439 83.5022 39.9199 83.2942 39.9199H82.4182V42.0199C82.4182 42.2039 82.3702 42.3439 82.2742 42.4399C82.1862 42.5359 82.0542 42.5839 81.8782 42.5839Z" fill="#3F3380"/>
<path d="M74.7755 42.584C74.6715 42.584 74.5795 42.564 74.4995 42.524C74.4275 42.484 74.3715 42.42 74.3315 42.332C74.2915 42.244 74.2715 42.132 74.2715 41.996V37.1C74.2715 36.932 74.3155 36.804 74.4035 36.716C74.4915 36.62 74.6155 36.572 74.7755 36.572C74.9275 36.572 75.0475 36.62 75.1355 36.716C75.2235 36.804 75.2675 36.932 75.2675 37.1V41.432H74.9555L78.3395 36.92C78.4035 36.832 78.4835 36.752 78.5795 36.68C78.6755 36.608 78.8035 36.572 78.9635 36.572C79.0755 36.572 79.1675 36.592 79.2395 36.632C79.3115 36.672 79.3635 36.736 79.3955 36.824C79.4355 36.904 79.4555 37.012 79.4555 37.148V42.056C79.4555 42.216 79.4115 42.344 79.3235 42.44C79.2435 42.536 79.1275 42.584 78.9755 42.584C78.8075 42.584 78.6795 42.536 78.5915 42.44C78.5115 42.344 78.4715 42.216 78.4715 42.056V37.712H78.7835L75.3995 42.236C75.3355 42.324 75.2555 42.404 75.1595 42.476C75.0635 42.548 74.9355 42.584 74.7755 42.584Z" fill="#3F3380"/>
<path d="M67.7219 42.584C67.5459 42.584 67.4099 42.536 67.3139 42.44C67.2179 42.344 67.1699 42.204 67.1699 42.02V37.124C67.1699 36.94 67.2179 36.804 67.3139 36.716C67.4099 36.62 67.5459 36.572 67.7219 36.572C67.8979 36.572 68.0299 36.62 68.1179 36.716C68.2139 36.804 68.2619 36.94 68.2619 37.124V39.056H71.3099V37.124C71.3099 36.94 71.3539 36.804 71.4419 36.716C71.5379 36.62 71.6739 36.572 71.8499 36.572C72.0259 36.572 72.1619 36.62 72.2579 36.716C72.3539 36.804 72.4019 36.94 72.4019 37.124V42.02C72.4019 42.204 72.3539 42.344 72.2579 42.44C72.1619 42.536 72.0259 42.584 71.8499 42.584C71.6739 42.584 71.5379 42.536 71.4419 42.44C71.3539 42.344 71.3099 42.204 71.3099 42.02V39.932H68.2619V42.02C68.2619 42.204 68.2179 42.344 68.1299 42.44C68.0419 42.536 67.9059 42.584 67.7219 42.584Z" fill="#3F3380"/>
<path d="M65.4418 44.144C65.2978 44.144 65.1818 44.104 65.0938 44.024C65.0138 43.944 64.9738 43.824 64.9738 43.664V42.5H57.7378C57.5538 42.5 57.4138 42.452 57.3178 42.356C57.2218 42.26 57.1738 42.12 57.1738 41.936V37.124C57.1738 36.94 57.2178 36.804 57.3058 36.716C57.4018 36.62 57.5298 36.572 57.6898 36.572C57.8658 36.572 57.9978 36.62 58.0858 36.716C58.1738 36.804 58.2178 36.94 58.2178 37.124V41.624H60.5578V37.124C60.5578 36.94 60.6018 36.804 60.6898 36.716C60.7858 36.62 60.9138 36.572 61.0738 36.572C61.2498 36.572 61.3818 36.62 61.4698 36.716C61.5578 36.804 61.6018 36.94 61.6018 37.124V41.624H63.9418V37.124C63.9418 36.94 63.9858 36.804 64.0738 36.716C64.1698 36.62 64.2978 36.572 64.4578 36.572C64.6258 36.572 64.7538 36.62 64.8418 36.716C64.9378 36.804 64.9858 36.94 64.9858 37.124V42.128L64.4818 41.624H65.3818C65.5498 41.624 65.6778 41.672 65.7658 41.768C65.8618 41.856 65.9098 41.984 65.9098 42.152V43.664C65.9098 43.984 65.7538 44.144 65.4418 44.144Z" fill="#3F3380"/>
<path d="M52.8027 42.6081C52.2267 42.6081 51.7267 42.4841 51.3027 42.2361C50.8787 41.9881 50.5507 41.6361 50.3187 41.1801C50.0867 40.7241 49.9707 40.1881 49.9707 39.5721C49.9707 39.1081 50.0347 38.6921 50.1627 38.3241C50.2987 37.9481 50.4907 37.6281 50.7387 37.3641C50.9867 37.1001 51.2827 36.9001 51.6267 36.7641C51.9787 36.6201 52.3707 36.5481 52.8027 36.5481C53.3787 36.5481 53.8787 36.6721 54.3027 36.9201C54.7267 37.1681 55.0547 37.5201 55.2867 37.9761C55.5187 38.4241 55.6347 38.9561 55.6347 39.5721C55.6347 40.0361 55.5667 40.4561 55.4307 40.8321C55.3027 41.2081 55.1147 41.5281 54.8667 41.7921C54.6187 42.0561 54.3187 42.2601 53.9667 42.4041C53.6227 42.5401 53.2347 42.6081 52.8027 42.6081ZM52.8027 41.7441C53.1547 41.7441 53.4587 41.6601 53.7147 41.4921C53.9787 41.3241 54.1787 41.0801 54.3147 40.7601C54.4587 40.4401 54.5307 40.0441 54.5307 39.5721C54.5307 38.8681 54.3747 38.3321 54.0627 37.9641C53.7507 37.5961 53.3307 37.4121 52.8027 37.4121C52.4587 37.4121 52.1547 37.4961 51.8907 37.6641C51.6347 37.8241 51.4347 38.0641 51.2907 38.3841C51.1467 38.7041 51.0747 39.1001 51.0747 39.5721C51.0747 40.2761 51.2307 40.8161 51.5427 41.1921C51.8627 41.5601 52.2827 41.7441 52.8027 41.7441Z" fill="#3F3380"/>
<path d="M42.8179 42.584C42.6659 42.584 42.5459 42.54 42.4579 42.452C42.3779 42.356 42.3379 42.224 42.3379 42.056V37.16C42.3379 37.032 42.3539 36.924 42.3859 36.836C42.4259 36.748 42.4819 36.684 42.5539 36.644C42.6259 36.596 42.7179 36.572 42.8299 36.572C42.9339 36.572 43.0219 36.592 43.0939 36.632C43.1659 36.664 43.2259 36.708 43.2739 36.764C43.3299 36.82 43.3779 36.888 43.4179 36.968L45.3979 40.46L47.3659 36.968C47.4139 36.88 47.4619 36.808 47.5099 36.752C47.5579 36.696 47.6179 36.652 47.6899 36.62C47.7619 36.588 47.8499 36.572 47.9539 36.572C48.1219 36.572 48.2459 36.624 48.3259 36.728C48.4059 36.824 48.4459 36.968 48.4459 37.16V42.056C48.4459 42.224 48.4019 42.356 48.3139 42.452C48.2339 42.54 48.1179 42.584 47.9659 42.584C47.8139 42.584 47.6939 42.54 47.6059 42.452C47.5179 42.356 47.4739 42.224 47.4739 42.056V37.916H47.7499L45.7819 41.36C45.7419 41.424 45.6939 41.484 45.6379 41.54C45.5819 41.588 45.5019 41.612 45.3979 41.612C45.2859 41.612 45.2019 41.588 45.1459 41.54C45.0979 41.484 45.0539 41.424 45.0139 41.36L43.0339 37.916H43.2979V42.056C43.2979 42.224 43.2579 42.356 43.1779 42.452C43.0979 42.54 42.9779 42.584 42.8179 42.584Z" fill="#3F3380"/>
<path d="M37.9668 42.6081C37.3908 42.6081 36.8908 42.4841 36.4668 42.2361C36.0428 41.9881 35.7148 41.6361 35.4828 41.1801C35.2508 40.7241 35.1348 40.1881 35.1348 39.5721C35.1348 39.1081 35.1988 38.6921 35.3268 38.3241C35.4628 37.9481 35.6548 37.6281 35.9028 37.3641C36.1508 37.1001 36.4468 36.9001 36.7908 36.7641C37.1428 36.6201 37.5348 36.5481 37.9668 36.5481C38.5428 36.5481 39.0428 36.6721 39.4668 36.9201C39.8908 37.1681 40.2188 37.5201 40.4508 37.9761C40.6828 38.4241 40.7988 38.9561 40.7988 39.5721C40.7988 40.0361 40.7308 40.4561 40.5948 40.8321C40.4668 41.2081 40.2788 41.5281 40.0308 41.7921C39.7828 42.0561 39.4828 42.2601 39.1308 42.4041C38.7868 42.5401 38.3988 42.6081 37.9668 42.6081ZM37.9668 41.7441C38.3188 41.7441 38.6228 41.6601 38.8788 41.4921C39.1428 41.3241 39.3428 41.0801 39.4788 40.7601C39.6228 40.4401 39.6948 40.0441 39.6948 39.5721C39.6948 38.8681 39.5388 38.3321 39.2268 37.9641C38.9148 37.5961 38.4948 37.4121 37.9668 37.4121C37.6228 37.4121 37.3188 37.4961 37.0548 37.6641C36.7988 37.8241 36.5988 38.0641 36.4548 38.3841C36.3108 38.7041 36.2388 39.1001 36.2388 39.5721C36.2388 40.2761 36.3948 40.8161 36.7068 41.1921C37.0268 41.5601 37.4468 41.7441 37.9668 41.7441Z" fill="#3F3380"/>
<path d="M28.968 42.584C28.792 42.584 28.656 42.536 28.56 42.44C28.464 42.344 28.416 42.204 28.416 42.02V37.28C28.416 37.08 28.468 36.928 28.572 36.824C28.684 36.712 28.84 36.656 29.04 36.656H32.988C33.188 36.656 33.34 36.712 33.444 36.824C33.556 36.928 33.612 37.08 33.612 37.28V42.02C33.612 42.204 33.564 42.344 33.468 42.44C33.372 42.536 33.236 42.584 33.06 42.584C32.884 42.584 32.748 42.536 32.652 42.44C32.564 42.344 32.52 42.204 32.52 42.02V37.532H29.508V42.02C29.508 42.204 29.464 42.344 29.376 42.44C29.288 42.536 29.152 42.584 28.968 42.584Z" fill="#3F3380"/>
<path d="M16.1714 42.5C15.9874 42.5 15.8474 42.452 15.7514 42.356C15.6554 42.26 15.6074 42.12 15.6074 41.936V37.124C15.6074 36.94 15.6514 36.804 15.7394 36.716C15.8354 36.62 15.9634 36.572 16.1234 36.572C16.2994 36.572 16.4314 36.62 16.5194 36.716C16.6074 36.804 16.6514 36.94 16.6514 37.124V41.624H18.9914V37.124C18.9914 36.94 19.0354 36.804 19.1234 36.716C19.2194 36.62 19.3474 36.572 19.5074 36.572C19.6834 36.572 19.8154 36.62 19.9034 36.716C19.9914 36.804 20.0354 36.94 20.0354 37.124V41.624H22.3754V37.124C22.3754 36.94 22.4194 36.804 22.5074 36.716C22.6034 36.62 22.7314 36.572 22.8914 36.572C23.0594 36.572 23.1874 36.62 23.2754 36.716C23.3714 36.804 23.4194 36.94 23.4194 37.124V41.936C23.4194 42.12 23.3674 42.26 23.2634 42.356C23.1674 42.452 23.0314 42.5 22.8554 42.5H16.1714Z" fill="#3F3380"/>
<path d="M10.9401 42.6081C10.5401 42.6081 10.1761 42.5281 9.84813 42.3681C9.52813 42.2081 9.27612 41.9921 9.09212 41.7201C8.91612 41.4481 8.82812 41.1441 8.82812 40.8081C8.82812 40.3761 8.93613 40.0361 9.15213 39.7881C9.36813 39.5401 9.73213 39.3641 10.2441 39.2601C10.7561 39.1481 11.4441 39.0921 12.3081 39.0921H12.8721V39.7881H12.3321C11.7161 39.7881 11.2281 39.8161 10.8681 39.8721C10.5161 39.9281 10.2681 40.0281 10.1241 40.1721C9.98013 40.3081 9.90812 40.5001 9.90812 40.7481C9.90812 41.0601 10.0161 41.3161 10.2321 41.5161C10.4561 41.7161 10.7601 41.8161 11.1441 41.8161C11.4481 41.8161 11.7161 41.7441 11.9481 41.6001C12.1801 41.4481 12.3641 41.2481 12.5001 41.0001C12.6361 40.7441 12.7041 40.4521 12.7041 40.1241V38.7441C12.7041 38.2721 12.6081 37.9321 12.4161 37.7241C12.2241 37.5081 11.9001 37.4001 11.4441 37.4001C11.1801 37.4001 10.9081 37.4361 10.6281 37.5081C10.3481 37.5801 10.0561 37.6921 9.75212 37.8441C9.63212 37.9001 9.52813 37.9201 9.44013 37.9041C9.35213 37.8801 9.28012 37.8321 9.22412 37.7601C9.17612 37.6801 9.14813 37.5961 9.14013 37.5081C9.14013 37.4121 9.16012 37.3201 9.20012 37.2321C9.24812 37.1441 9.32813 37.0801 9.44013 37.0401C9.79213 36.8641 10.1401 36.7401 10.4841 36.6681C10.8361 36.5881 11.1641 36.5481 11.4681 36.5481C11.9881 36.5481 12.4161 36.6321 12.7521 36.8001C13.0881 36.9601 13.3401 37.2121 13.5081 37.5561C13.6761 37.8921 13.7601 38.3241 13.7601 38.8521V42.0201C13.7601 42.2041 13.7161 42.3441 13.6281 42.4401C13.5401 42.5361 13.4121 42.5841 13.2441 42.5841C13.0841 42.5841 12.9561 42.5361 12.8601 42.4401C12.7721 42.3441 12.7281 42.2041 12.7281 42.0201V41.1681H12.8361C12.7721 41.4641 12.6521 41.7201 12.4761 41.9361C12.3001 42.1521 12.0801 42.3201 11.8161 42.4401C11.5601 42.5521 11.2681 42.6081 10.9401 42.6081Z" fill="#3F3380"/>
<path d="M1.61953 42.5C1.42753 42.5 1.27953 42.448 1.17553 42.344C1.07153 42.24 1.01953 42.092 1.01953 41.9V34.64C1.01953 34.448 1.07153 34.3 1.17553 34.196C1.27953 34.092 1.42753 34.04 1.61953 34.04H4.46353C5.04753 34.04 5.54353 34.128 5.95153 34.304C6.36753 34.48 6.68353 34.732 6.89953 35.06C7.11553 35.388 7.22353 35.784 7.22353 36.248C7.22353 36.768 7.07153 37.204 6.76753 37.556C6.46353 37.908 6.04753 38.144 5.51953 38.264V38.084C6.11153 38.156 6.57553 38.376 6.91153 38.744C7.25553 39.104 7.42753 39.576 7.42753 40.16C7.42753 40.912 7.17953 41.492 6.68353 41.9C6.19553 42.3 5.50353 42.5 4.60753 42.5H1.61953ZM2.09953 41.624H4.48753C5.11153 41.624 5.57553 41.504 5.87953 41.264C6.18353 41.016 6.33553 40.64 6.33553 40.136C6.33553 39.632 6.18353 39.26 5.87953 39.02C5.57553 38.78 5.11153 38.66 4.48753 38.66H2.09953V41.624ZM2.09953 37.772H4.29553C4.90353 37.772 5.35953 37.652 5.66353 37.412C5.97553 37.164 6.13153 36.808 6.13153 36.344C6.13153 35.88 5.97553 35.528 5.66353 35.288C5.35953 35.04 4.90353 34.916 4.29553 34.916H2.09953V37.772Z" fill="#3F3380"/>
</svg>
