<svg width="163" height="45" viewBox="0 0 163 45" fill="none" xmlns="http://www.w3.org/2000/svg">
<path d="M153.141 29.4005C151.648 29.4005 150.315 29.0405 149.141 28.3205C147.995 27.6005 147.195 26.5338 146.741 25.1205L147.101 24.1205L146.701 26.8005C146.595 27.6271 146.315 28.2538 145.861 28.6805C145.435 29.1071 144.808 29.3205 143.981 29.3205C143.208 29.3205 142.621 29.0671 142.221 28.5605C141.848 28.0271 141.728 27.3071 141.861 26.4005L145.581 3.00047C145.715 2.1738 146.021 1.54714 146.501 1.12047C146.981 0.693803 147.635 0.480469 148.461 0.480469C149.235 0.480469 149.808 0.733803 150.181 1.24047C150.555 1.74714 150.675 2.46714 150.541 3.40047L148.981 13.1205H148.581C149.301 11.8405 150.261 10.8405 151.461 10.1205C152.661 9.40047 154.035 9.04047 155.581 9.04047C157.075 9.04047 158.368 9.38714 159.461 10.0805C160.581 10.7471 161.448 11.7205 162.061 13.0005C162.675 14.2538 162.981 15.7471 162.981 17.4805C162.981 19.6938 162.581 21.7071 161.781 23.5205C161.008 25.3071 159.888 26.7338 158.421 27.8005C156.955 28.8671 155.195 29.4005 153.141 29.4005ZM152.221 25.6005C153.448 25.6005 154.475 25.2538 155.301 24.5605C156.155 23.8671 156.808 22.9205 157.261 21.7205C157.715 20.5205 157.941 19.1871 157.941 17.7205C157.941 16.1471 157.555 14.9471 156.781 14.1205C156.035 13.2671 154.995 12.8405 153.661 12.8405C152.461 12.8405 151.435 13.1871 150.581 13.8805C149.728 14.5738 149.075 15.5205 148.621 16.7205C148.168 17.8938 147.941 19.2271 147.941 20.7205C147.941 22.2938 148.315 23.5071 149.061 24.3605C149.835 25.1871 150.888 25.6005 152.221 25.6005Z" fill="white"/>
<path d="M129.943 29.401C127.969 29.401 126.249 29.041 124.783 28.321C123.343 27.5744 122.223 26.5344 121.423 25.201C120.623 23.8677 120.223 22.3077 120.223 20.521C120.223 18.3344 120.676 16.3877 121.583 14.681C122.516 12.9477 123.796 11.5743 125.423 10.561C127.049 9.54768 128.916 9.04102 131.023 9.04102C132.649 9.04102 134.009 9.32102 135.103 9.88102C136.196 10.441 137.063 11.201 137.703 12.161C138.343 13.0943 138.769 14.161 138.983 15.361C139.196 16.561 139.236 17.7877 139.103 19.041C139.049 19.601 138.903 19.961 138.663 20.121C138.423 20.281 138.089 20.361 137.663 20.361H124.223L124.623 17.481H135.823L135.143 18.081C135.303 17.0143 135.263 16.0677 135.023 15.241C134.783 14.3877 134.329 13.7077 133.663 13.201C133.023 12.6943 132.129 12.441 130.983 12.441C129.809 12.441 128.823 12.7077 128.023 13.241C127.223 13.7744 126.596 14.4677 126.143 15.321C125.689 16.1477 125.383 17.041 125.223 18.001L125.023 19.241C124.703 21.1877 125.023 22.7344 125.983 23.881C126.943 25.0277 128.409 25.601 130.383 25.601C131.183 25.601 132.009 25.521 132.863 25.361C133.716 25.1744 134.489 24.881 135.183 24.481C135.689 24.1877 136.129 24.0677 136.503 24.121C136.903 24.1477 137.209 24.2944 137.423 24.561C137.663 24.801 137.809 25.1077 137.863 25.481C137.916 25.8277 137.849 26.201 137.663 26.601C137.503 26.9743 137.209 27.3077 136.783 27.601C135.849 28.2143 134.743 28.6677 133.463 28.961C132.183 29.2543 131.009 29.401 129.943 29.401Z" fill="white"/>
<path d="M93.6318 29.3201C92.9652 29.3201 92.4052 29.1334 91.9518 28.7601C91.4985 28.3868 91.1785 27.8001 90.9918 27.0001L87.5918 12.5601C87.4318 11.8668 87.4185 11.2668 87.5518 10.7601C87.7118 10.2535 87.9919 9.85345 88.3919 9.56012C88.7919 9.26678 89.2852 9.12012 89.8719 9.12012C90.5119 9.12012 90.9918 9.29345 91.3118 9.64012C91.6585 9.96012 91.9118 10.5201 92.0719 11.3201L94.7519 24.4401H93.7519L101.072 10.6001C101.365 10.0668 101.685 9.69345 102.032 9.48012C102.405 9.24012 102.872 9.12012 103.432 9.12012C103.965 9.12012 104.405 9.26678 104.752 9.56012C105.125 9.85345 105.379 10.3201 105.512 10.9601L108.272 24.4401H107.472L114.512 10.9601C114.885 10.2668 115.272 9.78678 115.672 9.52012C116.072 9.25345 116.605 9.12012 117.272 9.12012C117.912 9.12012 118.405 9.26678 118.752 9.56012C119.099 9.82678 119.285 10.1868 119.312 10.6401C119.339 11.0935 119.205 11.6001 118.912 12.1601L110.512 27.4401C110.165 28.0801 109.739 28.5601 109.232 28.8801C108.752 29.1735 108.179 29.3201 107.512 29.3201C106.845 29.3201 106.272 29.1334 105.792 28.7601C105.339 28.3601 105.019 27.7735 104.832 27.0001L101.832 13.3601H104.112L96.6718 27.3601C96.3252 28.0268 95.8985 28.5201 95.3918 28.8401C94.9118 29.1601 94.3252 29.3201 93.6318 29.3201Z" fill="white"/>
<path d="M80.1094 29.2003C79.2027 29.2003 78.4694 28.9203 77.9094 28.3603C77.376 27.8003 77.1094 27.0803 77.1094 26.2003C77.1094 25.3469 77.376 24.6536 77.9094 24.1203C78.4694 23.5603 79.2027 23.2803 80.1094 23.2803C81.0427 23.2803 81.7627 23.5603 82.2694 24.1203C82.8027 24.6536 83.0694 25.3469 83.0694 26.2003C83.0694 27.0803 82.8027 27.8003 82.2694 28.3603C81.7627 28.9203 81.0427 29.2003 80.1094 29.2003Z" fill="white"/>
<path d="M52.7664 29.3201C52.0731 29.3201 51.5264 29.1201 51.1264 28.7201C50.7531 28.2935 50.5664 27.7068 50.5664 26.9601V11.8401C50.5664 11.2535 50.6464 10.7601 50.8064 10.3601C50.9664 9.96012 51.2197 9.65345 51.5664 9.44012C51.9131 9.22678 52.3397 9.12012 52.8464 9.12012C53.3531 9.12012 53.7664 9.21345 54.0864 9.40012C54.4331 9.56012 54.7264 9.77345 54.9664 10.0401C55.2064 10.3068 55.4064 10.6001 55.5664 10.9201L61.4464 21.0001L67.3264 10.9201C67.5131 10.5734 67.7131 10.2668 67.9264 10.0001C68.1664 9.73345 68.4464 9.52012 68.7664 9.36012C69.1131 9.20012 69.5264 9.12012 70.0064 9.12012C70.7797 9.12012 71.3531 9.36012 71.7264 9.84012C72.0997 10.2935 72.2864 10.9601 72.2864 11.8401V26.9601C72.2864 27.7068 72.0997 28.2935 71.7264 28.7201C71.3531 29.1201 70.8064 29.3201 70.0864 29.3201C69.3931 29.3201 68.8464 29.1201 68.4464 28.7201C68.0731 28.2935 67.8864 27.7068 67.8864 26.9601V15.2001H68.8464L63.1264 24.9601C62.9931 25.2001 62.7931 25.4401 62.5264 25.6801C62.2864 25.8935 61.9264 26.0001 61.4464 26.0001C60.9397 26.0001 60.5664 25.8801 60.3264 25.6401C60.0864 25.4001 59.8997 25.1735 59.7664 24.9601L54.0064 15.2001H54.9664V26.9601C54.9664 27.7068 54.7797 28.2935 54.4064 28.7201C54.0331 29.1201 53.4864 29.3201 52.7664 29.3201Z" fill="white"/>
<path d="M30.7427 29.3202C29.9427 29.3202 29.316 29.1068 28.8627 28.6802C28.436 28.2268 28.2227 27.5868 28.2227 26.7602V11.7202C28.2227 10.8935 28.436 10.2668 28.8627 9.84015C29.316 9.38682 29.9427 9.16016 30.7427 9.16016C31.5427 9.16016 32.156 9.38682 32.5827 9.84015C33.0093 10.2668 33.2227 10.8935 33.2227 11.7202V17.0402H36.0627L41.0627 10.3202C41.436 9.81349 41.8627 9.49349 42.3427 9.36016C42.8227 9.20016 43.276 9.18682 43.7027 9.32016C44.156 9.45349 44.516 9.69349 44.7827 10.0402C45.076 10.3868 45.2227 10.8002 45.2227 11.2802C45.2493 11.7335 45.076 12.2135 44.7027 12.7202L39.9427 19.2402L38.8627 17.6402C39.5827 17.7202 40.2227 17.9202 40.7827 18.2402C41.3693 18.5602 41.9027 19.0135 42.3827 19.6002C42.8893 20.1602 43.3827 20.8668 43.8627 21.7202L46.2227 25.9202C46.5427 26.4802 46.6493 27.0002 46.5427 27.4802C46.4627 27.9335 46.236 28.3202 45.8627 28.6402C45.516 28.9602 45.1027 29.1602 44.6227 29.2402C44.1427 29.3202 43.6627 29.2535 43.1827 29.0402C42.7293 28.8535 42.3427 28.4802 42.0227 27.9202L39.3427 23.2402C38.996 22.6268 38.6493 22.1602 38.3027 21.8402C37.9827 21.4935 37.6093 21.2535 37.1827 21.1202C36.7827 20.9868 36.2893 20.9202 35.7027 20.9202H33.2227V26.7602C33.2227 27.5868 33.0093 28.2268 32.5827 28.6802C32.156 29.1068 31.5427 29.3202 30.7427 29.3202Z" fill="white"/>
<path d="M3.03984 29.3201C2.34651 29.3201 1.79984 29.1201 1.39984 28.7201C1.02651 28.2935 0.839844 27.7068 0.839844 26.9601V11.8401C0.839844 11.2535 0.919844 10.7601 1.07984 10.3601C1.23984 9.96012 1.49318 9.65345 1.83984 9.44012C2.18651 9.22678 2.61318 9.12012 3.11984 9.12012C3.62651 9.12012 4.03984 9.21345 4.35984 9.40012C4.70651 9.56012 4.99984 9.77345 5.23984 10.0401C5.47984 10.3068 5.67984 10.6001 5.83984 10.9201L11.7198 21.0001L17.5998 10.9201C17.7865 10.5734 17.9865 10.2668 18.1998 10.0001C18.4398 9.73345 18.7198 9.52012 19.0398 9.36012C19.3865 9.20012 19.7998 9.12012 20.2798 9.12012C21.0532 9.12012 21.6265 9.36012 21.9998 9.84012C22.3732 10.2935 22.5598 10.9601 22.5598 11.8401V26.9601C22.5598 27.7068 22.3732 28.2935 21.9998 28.7201C21.6265 29.1201 21.0798 29.3201 20.3598 29.3201C19.6665 29.3201 19.1198 29.1201 18.7198 28.7201C18.3465 28.2935 18.1598 27.7068 18.1598 26.9601V15.2001H19.1198L13.3998 24.9601C13.2665 25.2001 13.0665 25.4401 12.7998 25.6801C12.5598 25.8935 12.1998 26.0001 11.7198 26.0001C11.2132 26.0001 10.8398 25.8801 10.5998 25.6401C10.3598 25.4001 10.1732 25.1735 10.0398 24.9601L4.27984 15.2001H5.23984V26.9601C5.23984 27.7068 5.05318 28.2935 4.67984 28.7201C4.30651 29.1201 3.75984 29.3201 3.03984 29.3201Z" fill="white"/>
<path d="M155.558 42.1079C154.926 42.1079 154.382 41.9879 153.926 41.7479C153.478 41.4999 153.13 41.1519 152.882 40.7039C152.634 40.2479 152.51 39.7119 152.51 39.0959C152.51 38.4879 152.63 37.9559 152.87 37.4999C153.118 37.0439 153.454 36.6879 153.878 36.4319C154.31 36.1759 154.802 36.0479 155.354 36.0479C155.746 36.0479 156.098 36.1159 156.41 36.2519C156.73 36.3799 157.002 36.5679 157.226 36.8159C157.45 37.0639 157.618 37.3679 157.73 37.7279C157.85 38.0799 157.91 38.4799 157.91 38.9279C157.91 39.0559 157.87 39.1559 157.79 39.2279C157.718 39.2919 157.61 39.3239 157.466 39.3239H153.362V38.6279H157.19L156.986 38.7959C156.986 38.3799 156.922 38.0279 156.794 37.7399C156.674 37.4439 156.494 37.2199 156.254 37.0679C156.022 36.9159 155.73 36.8399 155.378 36.8399C154.994 36.8399 154.666 36.9319 154.394 37.1159C154.122 37.2919 153.914 37.5439 153.77 37.8719C153.626 38.1919 153.554 38.5639 153.554 38.9879V39.0599C153.554 39.7799 153.726 40.3239 154.07 40.6919C154.414 41.0599 154.91 41.2439 155.558 41.2439C155.814 41.2439 156.074 41.2119 156.338 41.1479C156.61 41.0839 156.87 40.9679 157.118 40.7999C157.238 40.7279 157.346 40.6959 157.442 40.7039C157.546 40.7039 157.63 40.7359 157.694 40.7999C157.758 40.8559 157.798 40.9279 157.814 41.0159C157.83 41.0959 157.818 41.1839 157.778 41.2799C157.738 41.3759 157.662 41.4599 157.55 41.5319C157.286 41.7159 156.97 41.8599 156.602 41.9639C156.242 42.0599 155.894 42.1079 155.558 42.1079Z" fill="white"/>
<path d="M149.265 42.0842C149.089 42.0842 148.953 42.0363 148.857 41.9402C148.761 41.8442 148.713 41.7042 148.713 41.5202V37.0322H147.009C146.689 37.0322 146.529 36.8842 146.529 36.5882C146.529 36.4522 146.573 36.3482 146.661 36.2762C146.749 36.1962 146.865 36.1562 147.009 36.1562H151.497C151.825 36.1562 151.989 36.3002 151.989 36.5882C151.989 36.7322 151.945 36.8442 151.857 36.9243C151.777 36.9962 151.657 37.0322 151.497 37.0322H149.805V41.5202C149.805 41.7042 149.757 41.8442 149.661 41.9402C149.573 42.0363 149.441 42.0842 149.265 42.0842Z" fill="white"/>
<path d="M143.652 42.1079C143.02 42.1079 142.476 41.9879 142.02 41.7479C141.572 41.4999 141.224 41.1519 140.976 40.7039C140.728 40.2479 140.604 39.7119 140.604 39.0959C140.604 38.4879 140.724 37.9559 140.964 37.4999C141.212 37.0439 141.548 36.6879 141.972 36.4319C142.404 36.1759 142.896 36.0479 143.448 36.0479C143.84 36.0479 144.192 36.1159 144.504 36.2519C144.824 36.3799 145.096 36.5679 145.32 36.8159C145.544 37.0639 145.712 37.3679 145.824 37.7279C145.944 38.0799 146.004 38.4799 146.004 38.9279C146.004 39.0559 145.964 39.1559 145.884 39.2279C145.812 39.2919 145.704 39.3239 145.56 39.3239H141.456V38.6279H145.284L145.08 38.7959C145.08 38.3799 145.016 38.0279 144.888 37.7399C144.768 37.4439 144.588 37.2199 144.348 37.0679C144.116 36.9159 143.824 36.8399 143.472 36.8399C143.088 36.8399 142.76 36.9319 142.488 37.1159C142.216 37.2919 142.008 37.5439 141.864 37.8719C141.72 38.1919 141.648 38.5639 141.648 38.9879V39.0599C141.648 39.7799 141.82 40.3239 142.164 40.6919C142.508 41.0599 143.004 41.2439 143.652 41.2439C143.908 41.2439 144.168 41.2119 144.432 41.1479C144.704 41.0839 144.964 40.9679 145.212 40.7999C145.332 40.7279 145.44 40.6959 145.536 40.7039C145.64 40.7039 145.724 40.7359 145.788 40.7999C145.852 40.8559 145.892 40.9279 145.908 41.0159C145.924 41.0959 145.912 41.1839 145.872 41.2799C145.832 41.3759 145.756 41.4599 145.644 41.5319C145.38 41.7159 145.064 41.8599 144.696 41.9639C144.336 42.0599 143.988 42.1079 143.652 42.1079Z" fill="white"/>
<path d="M134.402 42.0843C134.226 42.0843 134.09 42.0363 133.994 41.9403C133.898 41.8443 133.85 41.7043 133.85 41.5203V36.6243C133.85 36.4403 133.898 36.3043 133.994 36.2163C134.09 36.1203 134.226 36.0723 134.402 36.0723C134.578 36.0723 134.71 36.1203 134.798 36.2163C134.894 36.3043 134.942 36.4403 134.942 36.6243V38.5563H137.99V36.6243C137.99 36.4403 138.034 36.3043 138.122 36.2163C138.218 36.1203 138.354 36.0723 138.53 36.0723C138.706 36.0723 138.842 36.1203 138.938 36.2163C139.034 36.3043 139.082 36.4403 139.082 36.6243V41.5203C139.082 41.7043 139.034 41.8443 138.938 41.9403C138.842 42.0363 138.706 42.0843 138.53 42.0843C138.354 42.0843 138.218 42.0363 138.122 41.9403C138.034 41.8443 137.99 41.7043 137.99 41.5203V39.4323H134.942V41.5203C134.942 41.7043 134.898 41.8443 134.81 41.9403C134.722 42.0363 134.586 42.0843 134.402 42.0843Z" fill="white"/>
<path d="M127.218 44.2439C127.05 44.2439 126.918 44.1959 126.822 44.0999C126.726 44.0039 126.678 43.8679 126.678 43.6919V36.6239C126.678 36.4399 126.726 36.3039 126.822 36.2159C126.918 36.1199 127.05 36.0719 127.218 36.0719C127.394 36.0719 127.526 36.1199 127.614 36.2159C127.71 36.3039 127.758 36.4399 127.758 36.6239V37.7159L127.626 37.4999C127.754 37.0599 128.006 36.7079 128.382 36.4439C128.758 36.1799 129.21 36.0479 129.738 36.0479C130.258 36.0479 130.71 36.1719 131.094 36.4199C131.478 36.6599 131.778 37.0079 131.994 37.4639C132.21 37.9119 132.318 38.4479 132.318 39.0719C132.318 39.6879 132.21 40.2279 131.994 40.6919C131.786 41.1479 131.486 41.4999 131.094 41.7479C130.71 41.9879 130.258 42.1079 129.738 42.1079C129.218 42.1079 128.77 41.9759 128.394 41.7119C128.018 41.4479 127.766 41.0999 127.638 40.6679H127.77V43.6919C127.77 43.8679 127.722 44.0039 127.626 44.0999C127.53 44.1959 127.394 44.2439 127.218 44.2439ZM129.486 41.2439C129.83 41.2439 130.13 41.1599 130.386 40.9919C130.65 40.8239 130.854 40.5799 130.998 40.2599C131.142 39.9399 131.214 39.5439 131.214 39.0719C131.214 38.3679 131.058 37.8319 130.746 37.4639C130.434 37.0959 130.014 36.9119 129.486 36.9119C129.134 36.9119 128.826 36.9959 128.562 37.1639C128.306 37.3239 128.106 37.5639 127.962 37.8839C127.826 38.2039 127.758 38.5999 127.758 39.0719C127.758 39.7759 127.914 40.3159 128.226 40.6919C128.538 41.0599 128.958 41.2439 129.486 41.2439Z" fill="white"/>
<path d="M122.839 42.1079C122.207 42.1079 121.663 41.9879 121.207 41.7479C120.759 41.4999 120.411 41.1519 120.163 40.7039C119.915 40.2479 119.791 39.7119 119.791 39.0959C119.791 38.4879 119.911 37.9559 120.151 37.4999C120.399 37.0439 120.735 36.6879 121.159 36.4319C121.591 36.1759 122.083 36.0479 122.635 36.0479C123.027 36.0479 123.379 36.1159 123.691 36.2519C124.011 36.3799 124.283 36.5679 124.507 36.8159C124.731 37.0639 124.899 37.3679 125.011 37.7279C125.131 38.0799 125.191 38.4799 125.191 38.9279C125.191 39.0559 125.151 39.1559 125.071 39.2279C124.999 39.2919 124.891 39.3239 124.747 39.3239H120.643V38.6279H124.471L124.267 38.7959C124.267 38.3799 124.203 38.0279 124.075 37.7399C123.955 37.4439 123.775 37.2199 123.535 37.0679C123.303 36.9159 123.011 36.8399 122.659 36.8399C122.275 36.8399 121.947 36.9319 121.675 37.1159C121.403 37.2919 121.195 37.5439 121.051 37.8719C120.907 38.1919 120.835 38.5639 120.835 38.9879V39.0599C120.835 39.7799 121.007 40.3239 121.351 40.6919C121.695 41.0599 122.191 41.2439 122.839 41.2439C123.095 41.2439 123.355 41.2119 123.619 41.1479C123.891 41.0839 124.151 40.9679 124.399 40.7999C124.519 40.7279 124.627 40.6959 124.723 40.7039C124.827 40.7039 124.911 40.7359 124.975 40.7999C125.039 40.8559 125.079 40.9279 125.095 41.0159C125.111 41.0959 125.099 41.1839 125.059 41.2799C125.019 41.3759 124.943 41.4599 124.831 41.5319C124.567 41.7159 124.251 41.8599 123.883 41.9639C123.523 42.0599 123.175 42.1079 122.839 42.1079Z" fill="white"/>
<path d="M116.547 42.0842C116.371 42.0842 116.235 42.0363 116.139 41.9402C116.043 41.8442 115.995 41.7042 115.995 41.5202V37.0322H114.291C113.971 37.0322 113.811 36.8842 113.811 36.5882C113.811 36.4522 113.855 36.3482 113.943 36.2762C114.031 36.1962 114.147 36.1562 114.291 36.1562H118.779C119.107 36.1562 119.271 36.3002 119.271 36.5882C119.271 36.7322 119.227 36.8442 119.139 36.9243C119.059 36.9962 118.939 37.0322 118.779 37.0322H117.087V41.5202C117.087 41.7042 117.039 41.8442 116.943 41.9402C116.855 42.0363 116.723 42.0842 116.547 42.0842Z" fill="white"/>
<path d="M108.222 42.0843C108.046 42.0843 107.91 42.0363 107.814 41.9403C107.718 41.8443 107.67 41.7043 107.67 41.5203V36.6243C107.67 36.4403 107.718 36.3043 107.814 36.2163C107.91 36.1203 108.046 36.0723 108.222 36.0723C108.398 36.0723 108.53 36.1203 108.618 36.2163C108.714 36.3043 108.762 36.4403 108.762 36.6243V38.5563H111.81V36.6243C111.81 36.4403 111.854 36.3043 111.942 36.2163C112.038 36.1203 112.174 36.0723 112.35 36.0723C112.526 36.0723 112.662 36.1203 112.758 36.2163C112.854 36.3043 112.902 36.4403 112.902 36.6243V41.5203C112.902 41.7043 112.854 41.8443 112.758 41.9403C112.662 42.0363 112.526 42.0843 112.35 42.0843C112.174 42.0843 112.038 42.0363 111.942 41.9403C111.854 41.8443 111.81 41.7043 111.81 41.5203V39.4323H108.762V41.5203C108.762 41.7043 108.718 41.8443 108.63 41.9403C108.542 42.0363 108.406 42.0843 108.222 42.0843Z" fill="white"/>
<path d="M101.119 42.0843C101.015 42.0843 100.923 42.0643 100.843 42.0243C100.771 41.9843 100.715 41.9203 100.675 41.8323C100.635 41.7443 100.615 41.6323 100.615 41.4963V36.6003C100.615 36.4323 100.659 36.3043 100.747 36.2163C100.835 36.1203 100.959 36.0723 101.119 36.0723C101.271 36.0723 101.391 36.1203 101.479 36.2163C101.567 36.3043 101.611 36.4323 101.611 36.6003V40.9323H101.299L104.683 36.4203C104.747 36.3323 104.827 36.2523 104.923 36.1803C105.019 36.1083 105.147 36.0723 105.307 36.0723C105.419 36.0723 105.511 36.0923 105.583 36.1323C105.655 36.1723 105.707 36.2363 105.739 36.3243C105.779 36.4043 105.799 36.5123 105.799 36.6483V41.5563C105.799 41.7163 105.755 41.8443 105.667 41.9403C105.587 42.0363 105.471 42.0843 105.319 42.0843C105.151 42.0843 105.023 42.0363 104.935 41.9403C104.855 41.8443 104.815 41.7163 104.815 41.5563V37.2123H105.127L101.743 41.7363C101.679 41.8243 101.599 41.9043 101.503 41.9763C101.407 42.0483 101.279 42.0843 101.119 42.0843Z" fill="white"/>
<path d="M91.4292 42.0003C91.2452 42.0003 91.1052 41.9523 91.0092 41.8563C90.9132 41.7603 90.8652 41.6203 90.8652 41.4363V36.7203C90.8652 36.5363 90.9132 36.3963 91.0092 36.3003C91.1052 36.2043 91.2452 36.1562 91.4292 36.1562H93.7812C94.2532 36.1562 94.6372 36.2162 94.9332 36.3362C95.2372 36.4562 95.4612 36.6283 95.6052 36.8523C95.7492 37.0763 95.8212 37.3562 95.8212 37.6922C95.8212 38.0602 95.6932 38.3723 95.4372 38.6283C95.1812 38.8843 94.8452 39.0363 94.4292 39.0842V38.9282C94.9252 38.9442 95.3132 39.0883 95.5932 39.3602C95.8732 39.6242 96.0132 39.9643 96.0132 40.3803C96.0132 40.8763 95.8292 41.2723 95.4612 41.5683C95.0932 41.8563 94.5652 42.0003 93.8772 42.0003H91.4292ZM91.8972 41.2803H93.8172C94.2012 41.2803 94.4932 41.2003 94.6932 41.0403C94.9012 40.8723 95.0052 40.6363 95.0052 40.3323C95.0052 40.0203 94.9012 39.7843 94.6932 39.6242C94.4932 39.4643 94.2012 39.3843 93.8172 39.3843H91.8972V41.2803ZM91.8972 38.6642H93.7212C94.0652 38.6642 94.3292 38.5842 94.5132 38.4243C94.7052 38.2643 94.8012 38.0443 94.8012 37.7643C94.8012 37.4763 94.7052 37.2562 94.5132 37.1042C94.3292 36.9523 94.0652 36.8763 93.7212 36.8763H91.8972V38.6642Z" fill="white"/>
<path d="M81.8782 42.0837C81.7022 42.0837 81.5662 42.0357 81.4702 41.9397C81.3742 41.8437 81.3262 41.7037 81.3262 41.5197V36.6477C81.3262 36.4717 81.3742 36.3357 81.4702 36.2397C81.5662 36.1437 81.7022 36.0957 81.8782 36.0957C82.0542 36.0957 82.1862 36.1437 82.2742 36.2397C82.3702 36.3357 82.4182 36.4717 82.4182 36.6477V38.5557H83.4502L85.1782 36.3357C85.2582 36.2237 85.3502 36.1557 85.4542 36.1317C85.5582 36.0997 85.6582 36.0997 85.7542 36.1317C85.8502 36.1557 85.9302 36.2077 85.9942 36.2877C86.0582 36.3677 86.0902 36.4597 86.0902 36.5637C86.0902 36.6677 86.0462 36.7757 85.9582 36.8877L84.3262 39.0117L84.0502 38.6757C84.2662 38.6997 84.4582 38.7557 84.6262 38.8437C84.7942 38.9317 84.9542 39.0637 85.1062 39.2397C85.2582 39.4157 85.4222 39.6517 85.5982 39.9477L86.4142 41.3397C86.4862 41.4597 86.5102 41.5717 86.4862 41.6757C86.4702 41.7797 86.4222 41.8677 86.3422 41.9397C86.2702 42.0037 86.1822 42.0437 86.0782 42.0597C85.9742 42.0837 85.8702 42.0717 85.7662 42.0237C85.6622 41.9837 85.5742 41.9037 85.5022 41.7837L84.5902 40.2477C84.4622 40.0317 84.3382 39.8637 84.2182 39.7437C84.0982 39.6237 83.9662 39.5397 83.8222 39.4917C83.6782 39.4437 83.5022 39.4197 83.2942 39.4197H82.4182V41.5197C82.4182 41.7037 82.3702 41.8437 82.2742 41.9397C82.1862 42.0357 82.0542 42.0837 81.8782 42.0837Z" fill="white"/>
<path d="M74.7755 42.0843C74.6715 42.0843 74.5795 42.0643 74.4995 42.0243C74.4275 41.9843 74.3715 41.9203 74.3315 41.8323C74.2915 41.7443 74.2715 41.6323 74.2715 41.4963V36.6003C74.2715 36.4323 74.3155 36.3043 74.4035 36.2163C74.4915 36.1203 74.6155 36.0723 74.7755 36.0723C74.9275 36.0723 75.0475 36.1203 75.1355 36.2163C75.2235 36.3043 75.2675 36.4323 75.2675 36.6003V40.9323H74.9555L78.3395 36.4203C78.4035 36.3323 78.4835 36.2523 78.5795 36.1803C78.6755 36.1083 78.8035 36.0723 78.9635 36.0723C79.0755 36.0723 79.1675 36.0923 79.2395 36.1323C79.3115 36.1723 79.3635 36.2363 79.3955 36.3243C79.4355 36.4043 79.4555 36.5123 79.4555 36.6483V41.5563C79.4555 41.7163 79.4115 41.8443 79.3235 41.9403C79.2435 42.0363 79.1275 42.0843 78.9755 42.0843C78.8075 42.0843 78.6795 42.0363 78.5915 41.9403C78.5115 41.8443 78.4715 41.7163 78.4715 41.5563V37.2123H78.7835L75.3995 41.7363C75.3355 41.8243 75.2555 41.9043 75.1595 41.9763C75.0635 42.0483 74.9355 42.0843 74.7755 42.0843Z" fill="white"/>
<path d="M67.7219 42.0843C67.5459 42.0843 67.4099 42.0363 67.3139 41.9403C67.2179 41.8443 67.1699 41.7043 67.1699 41.5203V36.6243C67.1699 36.4403 67.2179 36.3043 67.3139 36.2163C67.4099 36.1203 67.5459 36.0723 67.7219 36.0723C67.8979 36.0723 68.0299 36.1203 68.1179 36.2163C68.2139 36.3043 68.2619 36.4403 68.2619 36.6243V38.5563H71.3099V36.6243C71.3099 36.4403 71.3539 36.3043 71.4419 36.2163C71.5379 36.1203 71.6739 36.0723 71.8499 36.0723C72.0259 36.0723 72.1619 36.1203 72.2579 36.2163C72.3539 36.3043 72.4019 36.4403 72.4019 36.6243V41.5203C72.4019 41.7043 72.3539 41.8443 72.2579 41.9403C72.1619 42.0363 72.0259 42.0843 71.8499 42.0843C71.6739 42.0843 71.5379 42.0363 71.4419 41.9403C71.3539 41.8443 71.3099 41.7043 71.3099 41.5203V39.4323H68.2619V41.5203C68.2619 41.7043 68.2179 41.8443 68.1299 41.9403C68.0419 42.0363 67.9059 42.0843 67.7219 42.0843Z" fill="white"/>
<path d="M65.4418 43.6443C65.2978 43.6443 65.1818 43.6043 65.0938 43.5243C65.0138 43.4443 64.9738 43.3243 64.9738 43.1643V42.0003H57.7378C57.5538 42.0003 57.4138 41.9523 57.3178 41.8563C57.2218 41.7603 57.1738 41.6203 57.1738 41.4363V36.6243C57.1738 36.4403 57.2178 36.3043 57.3058 36.2163C57.4018 36.1203 57.5298 36.0723 57.6898 36.0723C57.8658 36.0723 57.9978 36.1203 58.0858 36.2163C58.1738 36.3043 58.2178 36.4403 58.2178 36.6243V41.1243H60.5578V36.6243C60.5578 36.4403 60.6018 36.3043 60.6898 36.2163C60.7858 36.1203 60.9138 36.0723 61.0738 36.0723C61.2498 36.0723 61.3818 36.1203 61.4698 36.2163C61.5578 36.3043 61.6018 36.4403 61.6018 36.6243V41.1243H63.9418V36.6243C63.9418 36.4403 63.9858 36.3043 64.0738 36.2163C64.1698 36.1203 64.2978 36.0723 64.4578 36.0723C64.6258 36.0723 64.7538 36.1203 64.8418 36.2163C64.9378 36.3043 64.9858 36.4403 64.9858 36.6243V41.6283L64.4818 41.1243H65.3818C65.5498 41.1243 65.6778 41.1723 65.7658 41.2683C65.8618 41.3563 65.9098 41.4843 65.9098 41.6523V43.1643C65.9098 43.4843 65.7538 43.6443 65.4418 43.6443Z" fill="white"/>
<path d="M52.8027 42.1079C52.2267 42.1079 51.7267 41.9839 51.3027 41.7359C50.8787 41.4879 50.5507 41.1359 50.3187 40.6799C50.0867 40.2239 49.9707 39.6879 49.9707 39.0719C49.9707 38.6079 50.0347 38.1919 50.1627 37.8239C50.2987 37.4479 50.4907 37.1279 50.7387 36.8639C50.9867 36.5999 51.2827 36.3999 51.6267 36.2639C51.9787 36.1199 52.3707 36.0479 52.8027 36.0479C53.3787 36.0479 53.8787 36.1719 54.3027 36.4199C54.7267 36.6679 55.0547 37.0199 55.2867 37.4759C55.5187 37.9239 55.6347 38.4559 55.6347 39.0719C55.6347 39.5359 55.5667 39.9559 55.4307 40.3319C55.3027 40.7079 55.1147 41.0279 54.8667 41.2919C54.6187 41.5559 54.3187 41.7599 53.9667 41.9039C53.6227 42.0399 53.2347 42.1079 52.8027 42.1079ZM52.8027 41.2439C53.1547 41.2439 53.4587 41.1599 53.7147 40.9919C53.9787 40.8239 54.1787 40.5799 54.3147 40.2599C54.4587 39.9399 54.5307 39.5439 54.5307 39.0719C54.5307 38.3679 54.3747 37.8319 54.0627 37.4639C53.7507 37.0959 53.3307 36.9119 52.8027 36.9119C52.4587 36.9119 52.1547 36.9959 51.8907 37.1639C51.6347 37.3239 51.4347 37.5639 51.2907 37.8839C51.1467 38.2039 51.0747 38.5999 51.0747 39.0719C51.0747 39.7759 51.2307 40.3159 51.5427 40.6919C51.8627 41.0599 52.2827 41.2439 52.8027 41.2439Z" fill="white"/>
<path d="M42.8179 42.0843C42.6659 42.0843 42.5459 42.0403 42.4579 41.9523C42.3779 41.8563 42.3379 41.7243 42.3379 41.5563V36.6603C42.3379 36.5323 42.3539 36.4243 42.3859 36.3363C42.4259 36.2483 42.4819 36.1843 42.5539 36.1443C42.6259 36.0963 42.7179 36.0723 42.8299 36.0723C42.9339 36.0723 43.0219 36.0923 43.0939 36.1323C43.1659 36.1643 43.2259 36.2083 43.2739 36.2643C43.3299 36.3203 43.3779 36.3883 43.4179 36.4683L45.3979 39.9603L47.3659 36.4683C47.4139 36.3803 47.4619 36.3083 47.5099 36.2523C47.5579 36.1963 47.6179 36.1523 47.6899 36.1203C47.7619 36.0883 47.8499 36.0723 47.9539 36.0723C48.1219 36.0723 48.2459 36.1243 48.3259 36.2283C48.4059 36.3243 48.4459 36.4683 48.4459 36.6603V41.5563C48.4459 41.7243 48.4019 41.8563 48.3139 41.9523C48.2339 42.0403 48.1179 42.0843 47.9659 42.0843C47.8139 42.0843 47.6939 42.0403 47.6059 41.9523C47.5179 41.8563 47.4739 41.7243 47.4739 41.5563V37.4163H47.7499L45.7819 40.8603C45.7419 40.9243 45.6939 40.9843 45.6379 41.0403C45.5819 41.0883 45.5019 41.1123 45.3979 41.1123C45.2859 41.1123 45.2019 41.0883 45.1459 41.0403C45.0979 40.9843 45.0539 40.9243 45.0139 40.8603L43.0339 37.4163H43.2979V41.5563C43.2979 41.7243 43.2579 41.8563 43.1779 41.9523C43.0979 42.0403 42.9779 42.0843 42.8179 42.0843Z" fill="white"/>
<path d="M37.9668 42.1079C37.3908 42.1079 36.8908 41.9839 36.4668 41.7359C36.0428 41.4879 35.7148 41.1359 35.4828 40.6799C35.2508 40.2239 35.1348 39.6879 35.1348 39.0719C35.1348 38.6079 35.1988 38.1919 35.3268 37.8239C35.4628 37.4479 35.6548 37.1279 35.9028 36.8639C36.1508 36.5999 36.4468 36.3999 36.7908 36.2639C37.1428 36.1199 37.5348 36.0479 37.9668 36.0479C38.5428 36.0479 39.0428 36.1719 39.4668 36.4199C39.8908 36.6679 40.2188 37.0199 40.4508 37.4759C40.6828 37.9239 40.7988 38.4559 40.7988 39.0719C40.7988 39.5359 40.7308 39.9559 40.5948 40.3319C40.4668 40.7079 40.2788 41.0279 40.0308 41.2919C39.7828 41.5559 39.4828 41.7599 39.1308 41.9039C38.7868 42.0399 38.3988 42.1079 37.9668 42.1079ZM37.9668 41.2439C38.3188 41.2439 38.6228 41.1599 38.8788 40.9919C39.1428 40.8239 39.3428 40.5799 39.4788 40.2599C39.6228 39.9399 39.6948 39.5439 39.6948 39.0719C39.6948 38.3679 39.5388 37.8319 39.2268 37.4639C38.9148 37.0959 38.4948 36.9119 37.9668 36.9119C37.6228 36.9119 37.3188 36.9959 37.0548 37.1639C36.7988 37.3239 36.5988 37.5639 36.4548 37.8839C36.3108 38.2039 36.2388 38.5999 36.2388 39.0719C36.2388 39.7759 36.3948 40.3159 36.7068 40.6919C37.0268 41.0599 37.4468 41.2439 37.9668 41.2439Z" fill="white"/>
<path d="M28.968 42.0842C28.792 42.0842 28.656 42.0363 28.56 41.9402C28.464 41.8442 28.416 41.7042 28.416 41.5202V36.7803C28.416 36.5803 28.468 36.4283 28.572 36.3243C28.684 36.2123 28.84 36.1562 29.04 36.1562H32.988C33.188 36.1562 33.34 36.2123 33.444 36.3243C33.556 36.4283 33.612 36.5803 33.612 36.7803V41.5202C33.612 41.7042 33.564 41.8442 33.468 41.9402C33.372 42.0363 33.236 42.0842 33.06 42.0842C32.884 42.0842 32.748 42.0363 32.652 41.9402C32.564 41.8442 32.52 41.7042 32.52 41.5202V37.0322H29.508V41.5202C29.508 41.7042 29.464 41.8442 29.376 41.9402C29.288 42.0363 29.152 42.0842 28.968 42.0842Z" fill="white"/>
<path d="M16.1714 42.0003C15.9874 42.0003 15.8474 41.9523 15.7514 41.8563C15.6554 41.7603 15.6074 41.6203 15.6074 41.4363V36.6243C15.6074 36.4403 15.6514 36.3043 15.7394 36.2163C15.8354 36.1203 15.9634 36.0723 16.1234 36.0723C16.2994 36.0723 16.4314 36.1203 16.5194 36.2163C16.6074 36.3043 16.6514 36.4403 16.6514 36.6243V41.1243H18.9914V36.6243C18.9914 36.4403 19.0354 36.3043 19.1234 36.2163C19.2194 36.1203 19.3474 36.0723 19.5074 36.0723C19.6834 36.0723 19.8154 36.1203 19.9034 36.2163C19.9914 36.3043 20.0354 36.4403 20.0354 36.6243V41.1243H22.3754V36.6243C22.3754 36.4403 22.4194 36.3043 22.5074 36.2163C22.6034 36.1203 22.7314 36.0723 22.8914 36.0723C23.0594 36.0723 23.1874 36.1203 23.2754 36.2163C23.3714 36.3043 23.4194 36.4403 23.4194 36.6243V41.4363C23.4194 41.6203 23.3674 41.7603 23.2634 41.8563C23.1674 41.9523 23.0314 42.0003 22.8554 42.0003H16.1714Z" fill="white"/>
<path d="M10.9401 42.1079C10.5401 42.1079 10.1761 42.0279 9.84813 41.8679C9.52813 41.7079 9.27612 41.4919 9.09212 41.2199C8.91612 40.9479 8.82812 40.6439 8.82812 40.3079C8.82812 39.8759 8.93613 39.5359 9.15213 39.2879C9.36813 39.0399 9.73213 38.8639 10.2441 38.7599C10.7561 38.6479 11.4441 38.5919 12.3081 38.5919H12.8721V39.2879H12.3321C11.7161 39.2879 11.2281 39.3159 10.8681 39.3719C10.5161 39.4279 10.2681 39.5279 10.1241 39.6719C9.98013 39.8079 9.90812 39.9999 9.90812 40.2479C9.90812 40.5599 10.0161 40.8159 10.2321 41.0159C10.4561 41.2159 10.7601 41.3159 11.1441 41.3159C11.4481 41.3159 11.7161 41.2439 11.9481 41.0999C12.1801 40.9479 12.3641 40.7479 12.5001 40.4999C12.6361 40.2439 12.7041 39.9519 12.7041 39.6239V38.2439C12.7041 37.7719 12.6081 37.4319 12.4161 37.2239C12.2241 37.0079 11.9001 36.8999 11.4441 36.8999C11.1801 36.8999 10.9081 36.9359 10.6281 37.0079C10.3481 37.0799 10.0561 37.1919 9.75212 37.3439C9.63212 37.3999 9.52813 37.4199 9.44013 37.4039C9.35213 37.3799 9.28012 37.3319 9.22412 37.2599C9.17612 37.1799 9.14813 37.0959 9.14013 37.0079C9.14013 36.9119 9.16012 36.8199 9.20012 36.7319C9.24812 36.6439 9.32813 36.5799 9.44013 36.5399C9.79213 36.3639 10.1401 36.2399 10.4841 36.1679C10.8361 36.0879 11.1641 36.0479 11.4681 36.0479C11.9881 36.0479 12.4161 36.1319 12.7521 36.2999C13.0881 36.4599 13.3401 36.7119 13.5081 37.0559C13.6761 37.3919 13.7601 37.8239 13.7601 38.3519V41.5199C13.7601 41.7039 13.7161 41.8439 13.6281 41.9399C13.5401 42.0359 13.4121 42.0839 13.2441 42.0839C13.0841 42.0839 12.9561 42.0359 12.8601 41.9399C12.7721 41.8439 12.7281 41.7039 12.7281 41.5199V40.6679H12.8361C12.7721 40.9639 12.6521 41.2199 12.4761 41.4359C12.3001 41.6519 12.0801 41.8199 11.8161 41.9399C11.5601 42.0519 11.2681 42.1079 10.9401 42.1079Z" fill="white"/>
<path d="M1.61953 42C1.42753 42 1.27953 41.948 1.17553 41.844C1.07153 41.74 1.01953 41.592 1.01953 41.4V34.14C1.01953 33.948 1.07153 33.8 1.17553 33.696C1.27953 33.592 1.42753 33.54 1.61953 33.54H4.46353C5.04753 33.54 5.54353 33.628 5.95153 33.804C6.36753 33.98 6.68353 34.232 6.89953 34.56C7.11553 34.888 7.22353 35.284 7.22353 35.748C7.22353 36.268 7.07153 36.704 6.76753 37.056C6.46353 37.408 6.04753 37.644 5.51953 37.764V37.584C6.11153 37.656 6.57553 37.876 6.91153 38.244C7.25553 38.604 7.42753 39.076 7.42753 39.66C7.42753 40.412 7.17953 40.992 6.68353 41.4C6.19553 41.8 5.50353 42 4.60753 42H1.61953ZM2.09953 41.124H4.48753C5.11153 41.124 5.57553 41.004 5.87953 40.764C6.18353 40.516 6.33553 40.14 6.33553 39.636C6.33553 39.132 6.18353 38.76 5.87953 38.52C5.57553 38.28 5.11153 38.16 4.48753 38.16H2.09953V41.124ZM2.09953 37.272H4.29553C4.90353 37.272 5.35953 37.152 5.66353 36.912C5.97553 36.664 6.13153 36.308 6.13153 35.844C6.13153 35.38 5.97553 35.028 5.66353 34.788C5.35953 34.54 4.90353 34.416 4.29553 34.416H2.09953V37.272Z" fill="white"/>
</svg>
